/* XPM */
static char *_2afce87d2a649c4d716e61e82845058Lib7tHwHXE4x6zlm[] = {
/* columns rows colors chars-per-pixel */
"60 64 245 2 ",
"   c None",
".  c #1B140E",
"X  c #17100A",
"o  c #18120E",
"O  c #21180F",
"+  c #251C13",
"@  c #2B1E13",
"#  c #2B2218",
"$  c #372819",
"%  c #372F23",
"&  c #462A17",
"*  c #47321C",
"=  c #57371C",
"-  c #5A2D14",
";  c #7A3D17",
":  c #6B3314",
">  c #463828",
",  c #573926",
"<  c #473C33",
"1  c #653D24",
"2  c #633E33",
"3  c #6F451B",
"4  c #5A4328",
"5  c #544538",
"6  c #4E4436",
"7  c #664929",
"8  c #664B34",
"9  c #695638",
"0  c #765739",
"q  c #6F502C",
"w  c #7B6336",
"e  c #594D45",
"r  c #5C534D",
"t  c #585042",
"y  c #5B534F",
"u  c #644E44",
"i  c #695549",
"p  c #755B46",
"a  c #6B5C53",
"s  c #645B57",
"d  c #725F50",
"f  c #7A6649",
"g  c #6A615C",
"h  c #7C6655",
"j  c #786859",
"k  c #786E51",
"l  c #7B6E64",
"z  c #746B67",
"x  c #7C7169",
"c  c #7E7877",
"v  c #6E6560",
"b  c #883C15",
"n  c #854819",
"m  c #974B18",
"M  c #98561C",
"N  c #A7581A",
"B  c #AA681B",
"V  c #B76919",
"C  c #875B33",
"Z  c #8F5528",
"A  c #96672B",
"S  c #9C7229",
"D  c #866735",
"F  c #966837",
"G  c #8D7036",
"H  c #A96728",
"J  c #B67728",
"K  c #AB7136",
"L  c #A75C23",
"P  c #C2741B",
"I  c #CA7734",
"U  c #846847",
"Y  c #986A49",
"T  c #967545",
"R  c #846C57",
"E  c #89745B",
"W  c #967956",
"Q  c #8E714C",
"!  c #A87844",
"~  c #B67A47",
"^  c #A27654",
"/  c #837263",
"(  c #83756B",
")  c #8A7967",
"_  c #937C65",
"`  c #977D66",
"'  c #867D78",
"]  c #816B61",
"[  c #C17743",
"{  c #B78837",
"}  c #BE953B",
"|  c #AB8137",
" . c #BD851E",
".. c #D78F1C",
"X. c #C5963A",
"o. c #CC8F2D",
"O. c #D9A836",
"+. c #CBA23D",
"@. c #E5AB34",
"#. c #EEC33E",
"$. c #F2C73D",
"%. c #F5D23D",
"&. c #9B8556",
"*. c #948451",
"=. c #B6864B",
"-. c #BA984A",
";. c #A88559",
":. c #B99B5A",
">. c #AC8E51",
",. c #BBA35A",
"<. c #B6A04E",
"1. c #9B846C",
"2. c #968469",
"3. c #8C827A",
"4. c #898179",
"5. c #938273",
"6. c #94897D",
"7. c #9A8976",
"8. c #9C9076",
"9. c #8C816B",
"0. c #A78A68",
"q. c #AB9769",
"w. c #B69768",
"e. c #A38D73",
"r. c #A58E78",
"t. c #AC9272",
"y. c #A4927D",
"u. c #AA9878",
"i. c #B69C77",
"p. c #B18E6C",
"a. c #BAA567",
"s. c #BAA778",
"d. c #ACA279",
"f. c #C6974C",
"g. c #C59855",
"h. c #CE954C",
"j. c #CAA64A",
"k. c #D5AA46",
"l. c #DBB44B",
"z. c #DEB94E",
"x. c #D5B24A",
"c. c #CAAA58",
"v. c #D5AB57",
"b. c #DDB953",
"n. c #DCBA5B",
"m. c #D7B557",
"M. c #CEB856",
"N. c #E5BB4D",
"B. c #E2BC52",
"V. c #E6BB5A",
"C. c #F2BB48",
"Z. c #C29C65",
"A. c #C8A765",
"S. c #CAB86F",
"D. c #D9B966",
"F. c #C6AA76",
"G. c #CBB778",
"H. c #D6B777",
"J. c #D2A86D",
"K. c #E6BB68",
"L. c #DCC258",
"P. c #E8C649",
"I. c #F3C947",
"U. c #F3D54D",
"Y. c #F5D445",
"T. c #E8C758",
"R. c #F3CC56",
"E. c #EDD156",
"W. c #F5D954",
"Q. c #F5D55C",
"!. c #F6DA5C",
"~. c #F4D554",
"^. c #DCC879",
"/. c #D9C26B",
"(. c #E6C765",
"). c #F2CA67",
"_. c #F4D363",
"`. c #F6DB63",
"'. c #F6DA68",
"]. c #E5C677",
"[. c #F3DA77",
"{. c #EBCF6F",
"}. c #F7E375",
"|. c #F5E26A",
" X c #958D86",
".X c #9D938B",
"XX c #9B9287",
"oX c #9C9896",
"OX c #8B8889",
"+X c #A69888",
"@X c #A29B96",
"#X c #B39D81",
"$X c #B8A685",
"%X c #ABA298",
"&X c #B8A997",
"*X c #B2A884",
"=X c #B4ADA7",
"-X c #C5AD84",
";X c #CAB587",
":X c #D5BA8A",
">X c #C6B893",
",X c #D7BD94",
"<X c #C8BEAC",
"1X c #E1BC86",
"2X c #DAC589",
"3X c #D7C996",
"4X c #DCD197",
"5X c #CBC393",
"6X c #E3CB88",
"7X c #E9D689",
"8X c #F3DD85",
"9X c #E4C994",
"0X c #E6D896",
"qX c #F2CA87",
"wX c #F8E78A",
"eX c #FAEB94",
"rX c #F5E99A",
"tX c #F9F29C",
"yX c #EEE493",
"uX c #D7CCA6",
"iX c #D5CDAE",
"pX c #E3DAA4",
"aX c #E7DCB4",
"sX c #ECE4A4",
"dX c #F5ECA5",
"fX c #F9F3A3",
"gX c #F9F6AC",
"hX c #F7F3AA",
"jX c #ECE8B8",
"kX c #F1EBBB",
"lX c #FAF9BB",
"zX c #F7F5B7",
"xX c #BEBEC1",
"cX c #DAD6CA",
"vX c #F2ECC8",
"bX c #FAFAC3",
"nX c #FBFBCB",
"mX c #F7F5C8",
"MX c #FBFBD3",
"NX c #F9F9DA",
"BX c #EFEBDA",
"VX c #FCFCE4",
"CX c #FBFCEC",
"ZX c #FCFEF4",
"AX c #E5D9C2",
/* pixels */
"                                                                                                                        ",
"                                                                                                                        ",
"                                                                                                                        ",
"                                                    a.a.s.s.G.G.s.a.                                                    ",
"                                            G.G.S.D.D.D.D./.n.D.D.D.J.c.,.                                              ",
"                                        2X^.K.n.n.K.V.B.B.B.B.b.b.b.b.n.m.J.:.                                          ",
"                                    H.^.(.(.L.b.n.T.b.B.B.B.B.b.b.B.B.B.n.n.D.c.                                        ",
"                                W F.^.(.D.n.z.b.b.z.z.z.N.z.z.N.b.N.B.B.B.m.j.D.A.;.                                    ",
"                              7 * > *.M.c.-.j.D.M.O.x.l.l.l.l.z.B.B.B.T.T.,.j.T.D.A.0.                                  ",
"                            9 4 8 > % *.:.j.k.x.:XA.+.+.O.x.x.x.z.b.B.B.L.>.M.T.M.c.>.0.                                ",
"                          0 f 2X0XpX4Xs.T | | { k.:X,.} +.j.k.x.z.M.b.b.c.>.M.*.> % > 9                                 ",
"                        T p 3XzXmXzXdXsX5XQ S S | j.2X>.{ } } } } } { D E ,.G % 7 7 * @ 4                               ",
"                        U ;XlXbXbXdXlXlXlX$XG S S S j.F.G A | >.>.w.e.9.*X:.q./.(.].a.> # 0                             ",
"                      &.0.zXbXmXkXsXpX0X9XF.:.-.D = 7 G k *.d.s.a.q.a.5X;Xu.pXgXhXeXwXq.# *                             ",
"                      U w.uXjXMXkX1XD.D.J.J.A.S.*.6 + l 2.4 4 > 8 k s.dXzX4Xd.jXgXtXwX8X9 + 8                           ",
"                    &.Q uXvXvXjXMXvXvX9XG.^.6XG.>.0 6 5X5 X + f 5XdXlXlXnXnX4Xd.kXgXtXeXq.# 6                           ",
"                    U s.nXMXVXiXNXZXBX2X;X6X2XG.d.d.8.aX6 # q.rXgXgXlXbXMXNXMX3X&XlXhXeX7X4 % E                         ",
"                  u.p pXMXNXVXiXvXZXBX4XpX0X6X6X^.q.5XuX% % 4XtXfXgXlXnXnXNXVXMX4XjXzXtXyXk $ 0                         ",
"                    f jXMXVXCXcXpXZXCXNXnXlXzXfX4X*.yX8.O + d.fXtXgXlXbXMXVXCXCXnXdXhXrX7X&.% 9                         ",
"                  = U zXMXVXCXBX3XCXCXMXnXlXgXtXS.q.4X6 O o k gXhXgXlXbXMXVXCXZXMX4XzXfXtXa.# 8                         ",
"                  = E lXNXVXCXCXaXmXmXdXdXyXyX0Xd.q.d.# # O 5 sXfXhXgXlXnXVXCXCXjXuXmXgXeXG.# 4                         ",
"                  = k lXNXVXCXCXvXzXyX0X2X:X5X4X5X8.8.% $ # > 4XeXfXtXgXbXNXCXVX5XiXbXgXeX/.# 6                         ",
"                  * p zXnXVXCXaXjXVXNXMXmXlXhXfXq.6 +Xz + + # s.eXeXeXfXlXMXVXvX5XmXlXtXeXa.+ $ R                       ",
"                  $ 9 sXnXNXNXyXvXNXMXbXgXgXfXa.> + t *X5 X o k eXwXwXeXhXlXMXpXiXlXfXwX}.&.. #                         ",
"                  * 4 7XzXnXdXsXCXMXnXlXfXtXyXw $ + . r .X6 X % F.8X8XyXyXhXjX3XjXgXfXwX}.k . $                         ",
"                    = a.rXdX8XmXVXmXlXhXtXeX/.6 # O . . s x # < *.S.G./.^.4X4X4XlXzXfXyX/.4 X *                         ",
"                    Y :.{.[.7XsXrXhXhXtXwX}.>.$ $ + O . o 6 k $X4X0X0XsX4X4XuX^.s.d.a.>.D $ . 4                         ",
"                    T G S.^.^.{.|.}.|.^./.>.4 $ @ + . . # &.t % 9 f f 9 9 *.f &.,.% = 3 3 $ @ q                         ",
"                    Z.F f.L.^.'.`.|.}.`.T.M.<.S w 7 4 % G $X4 * 4 w *.:.^.}.(.w /.9 4 3 = @ $                           ",
"                    J.K._.Q.E.D.E.E.|.|.|.`.|.!.W.E.T.L._.s.| c.(.{.|.}.}.}.}.*.-.a.q 3 & $ 7                           ",
"                    qX{._.Q.I.M.c.Y.~.`.!.|.W.W.W.W.|.W.(./.!.`.!.`.`.'.`.`.|._.-.L.c.:.-.c.A.                          ",
"                      qX).Q.~.P.<.L.Y.W.!.W.!.W.W.W.W.E.{.|.!.`.`.`.`.`.!.W.!.`.L.w.s.-X:.f w.                          ",
"                      9X).Q.R.I.P.j.I.Y.U.U.U.U.~.U.U.L.`.!.Q.!.`.`.!.Q.Q.Q.~.R.v.S.s.q.*.:.                            ",
"                        K.R.R.I.$.P.P.l.x.x.l.j.<.<.M.E.T.U.W.Q.!.!.Q.Q.Q.Q.R.f.A.R.T.T.V.].                            ",
"                          [.R.C.I.#.X.P.U.E.E.L.M.M.E.U.P.+.N.U.!.Q.Q.R.E.P.f.g.x.} h.B.K.9X                            ",
"                          qX{.C.#.O.{ P.%.%.Y.%.%.%.%.%.U.P.X.} l.B.l.O.j.g.c.@...3 M f.2X                              ",
"                              ).C.X.~ I.@.O.O.O.O.o.o.o.+.+.M.X.A M J J f.v.I ....- : Z.9X                              ",
"                                V.J g.o.L M B V B B M M N M S -.f.H A g.-.M m V n & - i.                                ",
"                                  g.h.J N V P P N N N m  .B S J A A F K ; ; ; : 7 1 Y w.                                ",
"                                      H m N o...V N N N V M M B B 3 3 n ; = 3 3 S j.@.j.R                               ",
"                                      C : N ..I ..M N m ; Z B M M - & 1 C 2 0 C =.P.I.j.h p R ] 5.w.                    ",
"                                        2 K @.@.o.Z n b : n 1 * 1 5 < l p , u C h W >.0.6.E ) &X` >.                    ",
"                                          J.).qX9XE u U i e e 5 R ) a  XU h / Y 9 i s y ' %X+X-Xi.W                     ",
"                                        p.g.v.l.p.&X7.] ) f < < U 1.h l d u ) XXy.4.z z c x 6.+X$Xw.;.                  ",
"                                  2 Y ,X$X:XH.h.C ^ 7.R ] R 8 _ t.W 8 > e ] +X,X*X' 4.' ' r oX=XXXh                     ",
"                                y u ) t.^ ,XaX#XY +X` ( .X@Xi / / d d 8 8 r.r.#X_ h 8.( s ) <X&Xl h                     ",
"                            e z 2 z ] ` XX=XcX6.j ` #XQ p ` h E / < r 0 E iXiXr.+XE 1.2.i.&X>X$XR `                     ",
"                            ' v 6 l $Xr.` oX=Xz z ( i p ] p u y z r s z ' >X,X) 6.E u.XX9.y.G.Z.2.'                     ",
"                        u c oXc c s ] l a i z oXxXr < g @X' +Xj < d U x g 5 j z ' +X@X@X6.i.w.1.1.4.                    ",
"                      oXa ' oX X3.s r z y s ' %X<Xz r 7.) XX:Xh.T Z C E g s 7.' ( +X%X&Xs.A.w.t.t.t.                    ",
"                      oX1.<X7.i r.#X` ] d  XxX@X( e < ] R 0.,Xp.=.F F T i s / 9.l 3.oX=Xu.0.p.w.s.Z.                    ",
"                    @X_ 0 / j h XX>X) a oX%X=X>X) ]  X] u &X-X) ( 1.R f R E ) *XXXoX@X%X5.e.7.p.Z.A.                    ",
"                  oX+Xe.( ( ) ^ #X<X3.' cXcX-XaX&X( oXOX' ( v 5 5 z p 2 _ ) +X+XoX=X=XXX5.XX5.p.i.F.                    ",
"                  @X$XZ.t.u.t.p.g.+XoX<XAXvXuXr.t.] x ' ( s v u < g ' g ( 6. XXX+X%X%XXX' ' 6.r.` e.                    ",
"                    p.i.e.7.@X+X#X^ ` +X$X#X` / ] h R  XOX' z r z 4.' XX.X+Xr.t.1.@X+X' ' 1.r.` '  X                    ",
"                    Z.F.F.e.e.+X+X X` ` ` ` 6.@Xr.e.` #X&X@X` 5.i.i.+X) $Xs.i.0.1.y.7.i.p.i.p.` p.                      ",
"                      ~ f.~ ! ~ =.=.=.^ W 0.e.p.p.J.Z.Z.H.H.J.,X2XH.H.J.l.v.v.J.J.v.v.h.! F Z C C                       ",
"                      A.F.Z.p.p.0.;.^ Y Y Y W Y Y Y K [ ~ [ [ h.I I I o.I I ~ h.h.v.v.~ Y F Y ~ Z.                      ",
"                      )._.'.[.8X8X7X7X9X3X3X3X:X:X:X-X:X,X1X1X1XZ.~ J.].H.K.qX7X[.].{.).V.V.V.K.                        ",
"                        R.I.I.@.$.$.I.I.I.~.~.Q.).).'.[.8X8X8X8X[.).{.).'.Q._.Q.R.R.R.C.C.V.V.                          ",
"                                    @.O.@.N.P.~.R.R.I.@.P.T.(.K.V.k.h.h.k.C.T.R.E.                                      ",
"                                                                                                                        ",
"                                                                                                                        ",
"                                                                                                                        "
};
