/* XPM */
static char *_6803_dd4a2753ac862213a45d940a005354b67a79158a058075d26981dc26f9202709[] = {
/* columns rows colors chars-per-pixel */
"35 35 48 1 ",
"  c black",
". c #010101",
"X c #020202",
"o c gray1",
"O c #040404",
"+ c gray2",
"@ c #060606",
"# c #070707",
"$ c gray3",
"% c #090909",
"& c gray4",
"* c #0B0B0B",
"= c #0C0C0C",
"- c gray5",
"; c #0E0E0E",
": c gray6",
"> c #101010",
", c #111111",
"< c gray7",
"1 c #131313",
"2 c gray8",
"3 c #151515",
"4 c #161616",
"5 c gray9",
"6 c #181818",
"7 c #191919",
"8 c gray10",
"9 c #1B1B1B",
"0 c gray11",
"q c gray12",
"w c gray13",
"e c #232323",
"r c gray14",
"t c gray15",
"y c #272727",
"u c #282828",
"i c gray16",
"p c gray17",
"a c #2C2C2C",
"s c gray18",
"d c gray19",
"f c #313131",
"g c gray20",
"h c #343434",
"j c #353535",
"k c #393939",
"l c gray23",
"z c None",
/* pixels */
"zzzzzzzzzzzzzzzzzzzzzzzzzzzzzzzzzzz",
"zzzzzzzzzzzzzzzzzzzzzzzzzzzzzzzzzzz",
"zzzzzzzzzzzzzzzzzzzzzzzzzzzzzzzzzzz",
"zzzzzzzzzzzzzzzzzzzzzzzzzzzzzzzzzzz",
"zzzzzzzzzzzzzzzzzzzzzz+zzzzzzzzzzzz",
"zzzzzzzzz+;.zzzzzzzzzX0ozzzzzzzzzzz",
"zzzzzzzzz8pozzzzzzzzzX8ozzzzzzzzzzz",
"zzzzzozzz#,e&..*;oXo*47XzOOzozzzzzz",
"zzzzz+zzzzX3u7qlkfjlke5,$7&.Ozzzzzz",
"zzzzzoo..4uh8>r>*3,**,idawOO@zzzzzz",
"zzzzzz+@ygu5=$===&=***&<0d1%+zzzzzz",
"zzzzzz$=1;=----==%*$-**-*-:*ozzzzzz",
"zzzzz.X$*=**%*&**-&=&=-%=*=&$..zzzz",
"zzzz.@+*&*=&*=**=*&&*&*&=*&&*OXzzzz",
"zzzz.X**&*=&*%**%*%***=&*%*=*# Xzzz",
"zzzzzz%&=*$*&-%*&&=&-*==&=%*==:4zzz",
"zzzz.;,****&**&=%=&&**=&**=*-t6.zzz",
"zzzzX91=%%=*==*=-****==-=-*=2r-*Xzz",
"zzzzz.#&*=**=%**%*&&=%*%&&&==-:6l0z",
"zzzzzz#*-&&=-&=&-&-=-&-%-&=*3e7,*%z",
"zzzzzz$=&*=&%*&**=*%==%=&-&-2Ozzzzz",
"zzzzzz$*&*=*-&-&&**&*&=*&&&*$ozzzzz",
"zzzzzo%;=*==*-&=&-*&-=&=-%=*@@Xzzzz",
"zzzzz@=&=-&%*%=&-&-&%*-$&-s>XzX@zzz",
"zzzz.@+%$&&*&-=***&&=;=*5wkzzzzzzzz",
"zzzz.o.Oo&&++$&$*%=&-w6wat,zzzzzzzz",
"zzzzzzXoz#+zz.oX+*$OO=$=*.zzzzzzzzz",
"zzzzzzzzzX@.zzzzo*+zzzzzzzzzzzzzzzz",
"zzzzzzzzz.Ozzzzzz@Ozzzzzzzzzzzzzzzz",
"zzzzzzzzzo.zzzzzzX.zzzzzzzzzzzzzzzz",
"zzzzzzzzz.zzzzzzzzzzzzzzzzzzzzzzzzz",
"zzzzzzzzzzzzzzzzzzzzzzzzzzzzzzzzzzz",
"zzzzzzzzzzzzzzzzzzzzzzzzzzzzzzzzzzz",
"zzzzzzzzzzzzzzzzzzzzzzzzzzzzzzzzzzz",
"zzzzzzzzzzzzzzzzzzzzzzzzzzzzzzzzzzz"
};
