/* XPM */
static char *bfa4dd24b05341598c710c6a4da5d92a9loblkP8TPXuSTaH[] = {
/* columns rows colors chars-per-pixel */
"67 64 246 2 ",
"   c None",
".  c #1A0D08",
"X  c #210706",
"o  c #29150C",
"O  c #35180B",
"+  c #370516",
"@  c #331E12",
"#  c #280E12",
"$  c #2F2017",
"%  c #382216",
"&  c #3F200E",
"*  c #020625",
"=  c #040B36",
"-  c #190E3A",
";  c #150F2B",
":  c #2A0825",
">  c #380B27",
",  c #270D38",
"<  c #340E39",
"1  c #28113C",
"2  c #37113B",
"3  c #341B2C",
"4  c #322B30",
"5  c #4D0E13",
"6  c #75051E",
"7  c #66061C",
"8  c #472714",
"9  c #59331B",
"0  c #4E2A13",
"q  c #6A3412",
"w  c #480A29",
"e  c #570927",
"r  c #4B0C33",
"t  c #470D39",
"y  c #5C0C34",
"u  c #540E3B",
"i  c #560C36",
"p  c #46113C",
"a  c #58113E",
"s  c #640B2C",
"d  c #6C092B",
"f  c #6A0725",
"g  c #72092B",
"h  c #780727",
"j  c #680D37",
"k  c #740E3D",
"l  c #7B0C37",
"z  c #66143A",
"x  c #74173B",
"c  c #7F162D",
"v  c #513629",
"b  c #742B25",
"n  c #653B27",
"m  c #682A32",
"M  c #5D402C",
"N  c #56483C",
"B  c #6A4126",
"V  c #774828",
"C  c #684634",
"Z  c #744C35",
"A  c #7C5339",
"S  c #7A421C",
"D  c #02134C",
"F  c #041757",
"G  c #181957",
"H  c #101348",
"J  c #2D0F41",
"K  c #360F41",
"L  c #241245",
"P  c #27144A",
"I  c #33144C",
"U  c #3C1345",
"Y  c #231653",
"T  c #281856",
"R  c #361B5A",
"E  c #1B2553",
"W  c #323450",
"Q  c #031E65",
"!  c #1B1A62",
"~  c #271E62",
"^  c #3C1E61",
"/  c #04226C",
"(  c #1C226A",
")  c #042573",
"_  c #042A7B",
"`  c #0A2979",
"'  c #192978",
"]  c #1B306C",
"[  c #26246B",
"{  c #2B236C",
"}  c #2C2165",
"|  c #352569",
" . c #262A76",
".. c #362A75",
"X. c #303676",
"o. c #441343",
"O. c #4B1243",
"+. c #45154C",
"@. c #4A1549",
"#. c #591446",
"$. c #491B57",
"%. c #551B58",
"&. c #6C1244",
"*. c #66154A",
"=. c #771549",
"-. c #671954",
";. c #71184F",
":. c #512B52",
">. c #742648",
",. c #682558",
"<. c #772856",
"1. c #743459",
"2. c #6E2D52",
"3. c #481E62",
"4. c #462568",
"5. c #54326B",
"6. c #502E6C",
"7. c #692B62",
"8. c #70376A",
"9. c #384676",
"0. c #434550",
"q. c #775946",
"w. c #6C4D4E",
"e. c #78665A",
"r. c #54476A",
"t. c #594576",
"y. c #504F70",
"u. c #6D476F",
"i. c #67666F",
"p. c #962F13",
"a. c #88072A",
"s. c #880C36",
"d. c #940A34",
"f. c #9C0D39",
"g. c #970B38",
"h. c #8C103E",
"j. c #8E0E31",
"k. c #A20E3A",
"l. c #A9133E",
"z. c #99272D",
"x. c #B04D08",
"c. c #824C2C",
"v. c #845333",
"b. c #8B5533",
"n. c #86593B",
"m. c #925A34",
"M. c #945C36",
"N. c #8A562A",
"B. c #AE4939",
"V. c #97643C",
"C. c #9D6B24",
"Z. c #A35E20",
"A. c #CA6104",
"S. c #C56C1B",
"D. c #871545",
"F. c #981343",
"G. c #811B53",
"H. c #A61843",
"J. c #89385B",
"K. c #8E3053",
"L. c #AD3052",
"P. c #873B67",
"I. c #9C3B64",
"U. c #895944",
"Y. c #9E4257",
"T. c #905D53",
"R. c #986747",
"E. c #986B53",
"W. c #9A735B",
"Q. c #8C6953",
"!. c #A46D4A",
"~. c #A36A46",
"^. c #A97758",
"/. c #B37C58",
"(. c #AC744A",
"). c #8B4D71",
"_. c #AD4C69",
"`. c #92756E",
"'. c #AA756C",
"]. c #A54453",
"[. c #CB7A52",
"{. c #B5815F",
"}. c #958B7A",
"|. c #A78169",
" X c #B88768",
".X c #A78B7B",
"XX c #B58A77",
"oX c #B3927C",
"OX c #D18B54",
"+X c #C58E6B",
"@X c #C79577",
"#X c #D59A78",
"$X c #CA8F70",
"%X c #D5A17D",
"&X c #E39861",
"*X c #032E84",
"=X c #052F85",
"-X c #03338B",
";X c #053387",
":X c #033A95",
">X c #233584",
",X c #09419A",
"<X c #1A4997",
"1X c #2E5292",
"2X c #1150AA",
"3X c #2558A6",
"4X c #2D65B0",
"5X c #54538A",
"6X c #685287",
"7X c #4C6594",
"8X c #6F7194",
"9X c #6C78A7",
"0X c #537CBD",
"qX c #2070CD",
"wX c #8A728E",
"eX c #B2798C",
"rX c #905E81",
"tX c #C2778B",
"yX c #6D84B1",
"uX c #8B879D",
"iX c #A69787",
"pX c #BB9883",
"aX c #A98796",
"sX c #8F93AC",
"dX c #A898AB",
"fX c #B298A3",
"gX c #B0A8B6",
"hX c #94A2B8",
"jX c #C89883",
"kX c #D69E82",
"lX c #D69F90",
"zX c #D5A68A",
"xX c #DBB196",
"cX c #D2A893",
"vX c #E2A689",
"bX c #EBB499",
"nX c #E0A892",
"mX c #C6A1AB",
"MX c #D7B3A3",
"NX c #E8BAA4",
"BX c #E8B9AC",
"VX c #C79AA2",
"CX c #DACBBF",
"ZX c #F0C6B2",
"AX c #B4BEC9",
"SX c #C8C8CC",
/* pixels */
"                                                                                                                                      ",
"                                                                                                                                      ",
"                                                                                                                                      ",
"                                                                  n n b                                                               ",
"                                                              & $ $ % 0 v C b                                                         ",
"                                                            O $ $ $ % % o $ % b                                                       ",
"                                                          c.o $ @ @ @ @ & M W.W.                                                      ",
"                                                          8 # o v 0 0 n B W.CXcX                                                      ",
"                                                          . o 4 q.W.(.n.^.zXZXZX                                                      ",
"                                                          O o 8 |.zX^.B Z ^.Q.|.                                                      ",
"                                                           XU.M oXxX Xq.A jXq.n                                                       ",
"                                                          vX+X/.%XZXxXxXxXNXcXbX                                                      ",
"                                                          kX#X@X X%X%X%X+X|.oXbX                                                      ",
"                                                            @X{.C.{.#X#X/.v.n.$X                                                      ",
"                                                            W./.V.V.+X(.V 9 V +X                                                      ",
"                                                            MX XN.S N.V R.n.Z  X                                                      ",
"                                                            CX$XN.0 0 9 V.N.V |.                                                      ",
"                                                            CX+Xv.O 8 9 V V A                                                         ",
"                                                          SXcX+XR.% . o & & Z                                                         ",
"                                                      yX7XiXzX+X{.n.o . . @ Q.i.y.                                                    ",
"                                                  0X<X>XT }.xX+X{.W.B o O M W.4 ] <X3X                                                ",
"                                                3X:X` G.:.] pX@X{.(.V 0 & B A ; u ^ ` <X3X                                            ",
"                                            qX2X:X=X( F...3.w.XX@XV.V V.A M 3 G *.l ) ` -X3X                                          ",
"                                          4X,X:X-X#.R F.6.,.D.5.pX/. XzX}.:.a.} -.=.( %.` -X2X                                        ",
"                                        qX:X:X-X=Xj | D.6.%.H.>Xu.$XnXlX5.| k.[ =.&.{ k.~ ) *X<X                                      ",
"                                        ,X:X*X` ~ g | =.7...H.>XG.K.5XL.4.4.g. .D.-.^ F. .*X) *X4X                                    ",
"                                      2X:X;X_ | 2 a.4.=.;...l...;.=. .l.4.%.h. .F.3.%.s. .3.) Q 4X                                    ",
"                                      2X;X_ / u , s.4.;.G...H...;.=. .l...-.D. .F...-.=. .D.~ Q 1X                                    ",
"                                    2X:X=X) F w , g...<.G.X.H.| *.&.{ f...;.z.T.B.w.m &.} j.L F 1X                                    ",
"                                    2X-X_ Q D w L F.5.2.].y.l.} *.&.{ k. .=.B.[.OX[.p.t I h = = X.                                    ",
"                                    3X*X` Q F w 1 h. X|.I.X.d.} #.*.^ F.[ D.B.R.C.C.p.J o.e * = 9.                                    ",
"                                    <X*X) Q F w < j 1.7.g. .s.} a *.R f.' h.>.w.q.m h P r + ; 4 N.                                    ",
"                                    =X=X/ Q D > w *.#.3.g.[ a.} a *.R s. .s.$.@.b < 5 L 5 + p.x.A.&X                                  ",
"                                  ,X_ =X) F D : e $.*.I j.I 6 P j *.R d.' s.+.O.w : + ; O 5 x.x.A.OX                                  ",
"                                  ,X) *X) F = : s $.e P g 2 j.4.k ;.~ g...s.$.+.y w : # X 5 p.x.A.OX                                  ",
"                                :X-X) _ Q D * ; d $.m uX`.8X'.yX).rXy.eXgXI.wXu.).2.+.d X q x.x.S.{.                                  ",
"                                -X-X/ ) F = 4 y.d I s dXgXyXgXSXtXaX7XVXsXeXAXgXgXeX6.u.v 8 q M N R.                                  ",
"                              1X*X-X) Q D * 0.y.i , m mXfXuXmXhXfXeXhXeXdXeXgXaXwXwX8.y.  $ v v N.{.                                  ",
"                              sXW ] Q D = 4     t + =.).>.8XmXhXfXeXuX'.8XI.t.,.2.t.D.y.  N 9 V m.OX                                  ",
"                                jXE.W = * W     1 > *.*.y >X_.6XP.<.| l...l , r e 1 f 5.  C 9 B R.{.                                  ",
"                                jX@X^.C :.      1 > -.#.z [ f.~ ;.j ^ g.~ k J e e , s.    Z Z n.R.^.#X                                ",
"                              ZXjXXXW.R.}.      E > -.p x { f.{ &.O.^ g. .l K e r K K.    A B U.!./.+X                                ",
"                              BXpXoXW.U.iX      W < %.U x { d.[ &.O.^ g.( =.O.f t I Y.      V v.R.(./.                                ",
"                              MXiXoXW.q.pX      y.< %.I k } d.[ &.t R d.( D.u g O.Y m       n.V.V.~.!.                                ",
"                              cX}.}.e.N jX      y.r #.T =.~ g.~ j 2 R d.( s.i f O.Y %.      n.b.m.m.V.                                ",
"                              MXiX}.w.N         u.i a T l ~ d.| y o.R d.( l r f w , 1.      Q.c.b.m.V.                                ",
"                              BXiX}.e.e.        u.i s Y =.~ d.{ y o.^ g.( l t f i s $.8.      V b.m.M.                                ",
"                              CXiX`.q.          P.O.g G &.T s.~ s +.3.d.! g O.e 2 k +.u.      Z V N.~.                                ",
"                              BXpXW.'.          I.p g Y j G s.~ j +.$.a.G g O.#.U a 2.u.      T.b N.(.                                ",
"                              ZXbXzX            J.p h G d Y l ~ d +.R h G d t K z 2 < |         v.M.^.                                ",
"                              ZXMXbX            <.J f Y g Y d T j +.I 6 G f r - # + j 6.        E.b./.                                ",
"                              NXkXvX            2.J f T g Y s U j O., 6 G g r # - J %.J.          n.(.                                ",
"                            NXbX#XkX            ,.L d T h P s +.j O.I h G s + e w d [ J.          Q.!.%X                              ",
"                            vXvXZXNX            %.P s Y f I a @.j i 1 a.( + ; s > a.^ <.6X        ^.(.kX                              ",
"                            vX#XkX              ,.Y s L 7 U u @.j r < h - 7 I , G s.3.7.8.        XX!.XX                              ",
"                            zX/./.jX            #.T d J e O.O.O.j r K h Y l w 7 ~ =.=.3.8.9X      XXM.!.                              ",
"                              E.V q.          4.#.Y g I s O.O.#.y u ^ d.[ r , d.| %.D.4.<.yX       X~.R.#X                            ",
"                                .XXX          ..&.R h I y u o.#.u #.~ f.T > ! D.-.{ h.t.<.7X      R.R.V.$X                            ",
"                                              ' &.I l I u u U y < e L h : h } %.d.i.`.wXP.7X    oXb.R.~.$X                            ",
"                                              ` k T h I i i I f J l ! 5 - h @.R g.X.<.,.8.5X    oXn v.!.@X                            ",
"                                              ! K.5.K.6.1.1.t.I.t.J.y.z y.1.J.5XI.6X8.I.6XwX    oX.X|. X@X                            ",
"                                                                                                                                      ",
"                                                                                                                                      ",
"                                                                                                                                      "
};
