/* XPM */
static char *ef138abf4fc24c42ba7b4905c6ab1f4fMuEwslHddopSiSkv[] = {
/* columns rows colors chars-per-pixel */
"64 64 197 2 ",
"   c #740E0E",
".  c #7F0D0E",
"X  c #77140F",
"o  c #7C150E",
"O  c #76180E",
"+  c #7D190F",
"@  c #7B0E12",
"#  c #751514",
"$  c #7D1415",
"%  c #751915",
"&  c #7C1A15",
"*  c #711719",
"=  c #7E1519",
"-  c #761C1B",
";  c #7D1B1B",
":  c #722316",
">  c #7A2016",
",  c #73211B",
"<  c #7C211C",
"1  c #7E1D20",
"2  c #7D2322",
"3  c #7E2A24",
"4  c #7E2C2B",
"5  c #7F4439",
"6  c #850D0E",
"7  c #83160F",
"8  c #801A0F",
"9  c #850E12",
"0  c #8A0D15",
"q  c #8C0E18",
"w  c #930E19",
"e  c #831415",
"r  c #8A1416",
"t  c #831A15",
"y  c #8A1917",
"u  c #84151A",
"i  c #8A151A",
"p  c #841B1B",
"a  c #8B1B1C",
"s  c #901517",
"d  c #91141B",
"f  c #98141F",
"g  c #911A1D",
"h  c #832017",
"j  c #84211C",
"k  c #8A211E",
"l  c #91211D",
"z  c #8C1720",
"x  c #851D21",
"c  c #8B1C22",
"v  c #901720",
"b  c #981620",
"n  c #921D23",
"m  c #981B23",
"M  c #842323",
"N  c #8B2324",
"B  c #842925",
"V  c #8B2A26",
"C  c #862629",
"Z  c #8B262A",
"A  c #852C2C",
"S  c #8C2A29",
"D  c #8C2B2B",
"F  c #912324",
"G  c #932B25",
"H  c #92242A",
"J  c #9A2128",
"K  c #912B2C",
"L  c #982F2D",
"P  c #84322D",
"I  c #8A302F",
"U  c #8C332C",
"Y  c #8A3A2F",
"T  c #91322D",
"R  c #852F30",
"E  c #8C2E31",
"W  c #932C32",
"Q  c #992C31",
"!  c #853432",
"~  c #8C3333",
"^  c #823E33",
"/  c #853C36",
"(  c #8E3E37",
")  c #8B3C36",
"_  c #8D3738",
"`  c #853E3B",
"'  c #8E3D39",
"]  c #8C3E3A",
"[  c #903232",
"{  c #953133",
"}  c #943434",
"|  c #993337",
" . c #933833",
".. c #943B37",
"X. c #943A36",
"o. c #993A37",
"O. c #913538",
"+. c #933738",
"@. c #943739",
"#. c #9A3439",
"$. c #943938",
"%. c #963C3B",
"&. c #933F3D",
"*. c #973F3D",
"=. c #933D3B",
"-. c #9A3C3C",
";. c #844035",
":. c #8A4137",
">. c #814338",
",. c #814638",
"<. c #80463A",
"1. c #82463A",
"2. c #85453B",
"3. c #84463B",
"4. c #85473C",
"5. c #86463C",
"6. c #87473D",
"7. c #85443B",
"8. c #89453A",
"9. c #88463A",
"0. c #8C433C",
"q. c #89463D",
"w. c #8A463D",
"e. c #8A473E",
"r. c #8B473E",
"t. c #8C463E",
"y. c #8C433C",
"u. c #83483A",
"i. c #83493E",
"p. c #86483D",
"a. c #87493E",
"s. c #844A3F",
"d. c #86493E",
"f. c #894B3C",
"g. c #88483E",
"h. c #89493F",
"j. c #8C483F",
"k. c #8A493E",
"l. c #904037",
"z. c #91423B",
"x. c #91403D",
"c. c #92423D",
"v. c #99423C",
"b. c #91483F",
"n. c #A0413F",
"m. c #863F41",
"M. c #8C3E42",
"N. c #913E44",
"B. c #9F3D40",
"V. c #953F48",
"C. c #854441",
"Z. c #8C4343",
"A. c #864A42",
"S. c #8B4840",
"D. c #894B40",
"F. c #8B4B41",
"G. c #8D4A41",
"H. c #8B4D42",
"J. c #894C41",
"K. c #8F4C43",
"L. c #8B4F44",
"P. c #8C4B43",
"I. c #8F4548",
"U. c #8B4D4E",
"Y. c #924443",
"T. c #9A4442",
"R. c #934A44",
"E. c #994A46",
"W. c #944449",
"Q. c #98464C",
"!. c #944C4A",
"~. c #984F48",
"^. c #885043",
"/. c #8C5747",
"(. c #8C5246",
"). c #8B5648",
"_. c #8E5448",
"`. c #8C5749",
"'. c #8C534A",
"]. c #8B5A4B",
"[. c #8B5A4C",
"{. c #8C5A4F",
"}. c #8E5D4E",
"|. c #905247",
" X c #94544B",
".X c #99544D",
"XX c #905C4F",
"oX c #8F4F50",
"OX c #935252",
"+X c #995454",
"@X c #945B53",
"#X c #9A5658",
"$X c #935C59",
"%X c #9A5859",
"&X c #A24848",
"*X c #926153",
"=X c #936158",
/* pixels */
"$ t t $ & & $ V Y & a a & p j i y k j t a y e B ^ % t i & % t y r 8 & & t t $ j ' * t t e $ e = o t t o % p $ y y.- p N p j j p ",
"t u i e y u $ N  .t i g t a a i r a a t g g u G ] ; i f u u t r s e p t t i e j *.$ e t r e a e e e r r u p e t c.- u z i y a a ",
"= $ u e p u $ Z ..; p c p N a y a p p p a n u S ' ; e i p x p e r $ u u u u $ M &.- u e a u p $ $ @ t t p p = e N.2 x x p p p a ",
"u $ u u i u u N } p i z z c u x c p a i c c u Z [ = q i i p u e a @ t u u e u c +.; u e a $ ; e u @ e q u u u e +.x c i p c a a ",
"J.>.a.5.5.g.a.L._.i.a.w.w.S.i.L.).1.w.t.g.w.7.G.`.1.5.w.w.a.5.D.).5 D.P.w.S.5.D.{.i.L.8.f.u.u.g.[.5 w.g.w.J.g.G.[.A.D.w.D.D.5.G.",
"S u p a u p u p c = p a i i u C ~ = u z i u u a p e a p u p u N +.x c n p p u a x u n i a p p N %.M c c a p a a x u c i x c u c ",
"N t i i e r t t i e p a s s t V ~ u i s i u e i r e r r i i e N -.p i d t a i i x q g 6 a a i g *.x a n i a a i y u g i a c e v ",
"B O & p e p p p t & & ; y t % 3 / # e u & & & t t $ & & y p = M 0.% = a & < p u p y g e k h u p c.- p N p ; p p & p p $ p j = x ",
"S = p p = p u p ; = u e p u = S X.# # u p p u ; % $ a @ x u ; j %.; & ; u p p u 1 ; x u N p p x x.2 ; a u p p p ; = x & M ; u c ",
"Q.] W.M.M.V.I.!.R.] 0.z.l.0.] P.R./ Y.Y.c.Y.c.R.OXM.W.N.W.M.Z.Y.+Xm.I.W.Y.W.Y.W.'.y.Y._ c.8.y.c.%XA.W.W.Y.Q.W.Y.+XZ.W.] Y.M.M.V.",
"h t y t y h h V ~ ; j k u p p 1 ; = p p p p = N U O & $ t O $ o & O & t e 8 o t &.1 c p M u x p t + t t t t t t z.; t e t & t t ",
"u p x u x x ; W } & u j $ y p u y p p e y p = N =.# u p u e z e t u a e u u e N N.# p y y e p i i i x = p c u n Y.1 = i a y p $ ",
"p a a p p x = E  .% t a e t u u y y u $ p a u N =.# = u u $ u e u e a e u u $ c *.% p u y $ a u z p c = p c i c W.- u i i u p e ",
"p t p t p j h V ~ ; p j t p p ; = $ x p p u % N U O e $ 8 O & 8 & X 8 t + e o t &.1 N a j p p x t o t t t p t t z.> p e 8 8 h t ",
"!.M.Y.W.N.W.W.Q.R.t.c.z.z.0.8.R. X8.Y.E.R.c.&.E.OXI.W.] W.W.Y.W.+XZ.Z.W.W.W.W.W. XZ.T.x.R.t.c.c.%XA.W.Q.W.Q.W.W.#XZ.W.' W.Z.Z.T.",
"K p j c p x x x x p x a c c ; E $.; = p x c x x 1 = p 9 M ; p N -.& ; M t p a p 2 1 c u N c x Z Y.2 p j u p M ; x p N p N x x c ",
"V ; p M p p p j c p & j t F ; 4 ] % p i a & h p h u t t ; < % M z., ; p p k k k j p k t j ; ; Z z.: > j p k j p h j N y j M t j ",
"K y c n a c c a i a a a s m z Z X.= d s n y i i a i a i a c z m o.u p a r g g i a r g r F p a m n.j p n v n n i a a n g a F i n ",
"S p c c x c a c c u a c i c z E ~ p c c a y a k p ; c z x x p Z o.M N F g F N k N t g a F p x c B.x x c c c c c x p c a N N a n ",
"L.5.A.D.7.5.i.L._.i.5.t.8.8.>.L.).1.D.w.D.9.9.(.'.1.w.S.7.5.7.D.).i.a.J.8.9.9.g.XX5.R.8.(.a.D.Z.@X5.D.Z.S.!.L.J.}.J.R.G.k.H.u.g.",
"x u u u i u z Z W = u u u u u u p $ u u e u u c ~ u u e u u u u u $ u u u u u c $.x c i a x c c F i i a i l a k %.x c c i p a a ",
"u u x u u x p Z _ * u u t ; u u e e $ ; u u $ C =.% = u = p p y p u p p u p = x Y.x c p x p x x a y k p k k t p W.2 p a y p p a ",
"u u p e u y = K ~ @ e r t e p r r y & p i a @ C ..; $ i e u p y t e y e e e @ a W.; x i a y c p a a k a a a t a T.; y c y k k a ",
"p u j u p p & D ) # a t & # p i u j & p y c # B 0.- u N t u & u t t p & p p = N R.2 M a k j M p p M N ; j N c N R.2 j N k k k p ",
" X` Y.Y.0.Y.Z.S.!.Y.Z.y.Y.t./ !.@X` ] N.' ] 7.I.W.` ` Z.Z.Z.] W.@Xm.M.Z.Z.C.` Z.!.0.y.y.R.W.' Q.$XC.W.' R.Y.I.Z.|.t.y.Z.Z.Z.Y.W.",
"Z = y u i a x x p p y u a a u K ~ $ u i e = = x = $ @ = p p u c _ ; = c u p u u p & u = p p e a =.1 p e a ; p = a u ; y u p p u ",
"A ; p p p j p p k p p p k p t V ) # $ t e t u = $ t u $ t t $ M ) % u p t h p a t t h p p k t j c.- u $ p & & y t t t p t u p & ",
"N y t y i a y p i y g g i t t F  .$ e r e u u u e i t 6 r e . a } $ e y e a i r r e g r t i y a -.; e r i t i g y r a y r y a e ",
"I 2 M p M M p C M t M N p M M A ! - M x ; ; M x ; p ; = x x ; C c.2 p M ; M p ; M < M x p p M j W.2 M x B ; x x M M M p p M j - ",
"!.Y.Y.z.Y.Y.0. XR.8.0.Y.' 0.y.R.U.7.] ] ) 7.] Y.!.7.Z.' ' Z.y.Z. X/ ] Z.G.!.Z.Y..X/ 0.Y.] Y.c.Z.OX/ Z.' Y.8.0.N..XY.S.Y.c.R.c.t.",
"p y p y a p t D } = u u u = = $ = $ $ $ = $ $ c $.% = x u u u u = $ e u D D p x } ; = x u u u u 1 @ z $ t u u u +.M u x c a p x ",
"p a a a k y p U U % % t $ y u e $ t e 6 j j $ N *.# $ c u p x u t a a p T A % c v.% # y u p u e x t a e & u y t Y.M ; c k p a k ",
"p a x y p p & A I # # ; # u a $ # ; y $ B C - A t.- < B j M C 2 & B N p B A - A ' 2 C c e p p e u u p & % p $ i z.M ; p p p a j ",
"c c c c N N c W { = c a e c c u x u z u H Z M W &XE E Q H W W Z B N H c H K Z Q Y.A A Z x c x p c z c i p c a n v.D c H H n n c ",
" XD.P.Z.t.G.5.L.(.5.S.Z.w.S.S.L. X5.y.S.L.L.I.U.'.i.A.` 5.S.S.L.@XJ.D.I.I.P.P.U.U.A.P.S.Z.Z.7.w.=XA.Z.c.7.y.5.y._.7./ y.y.y.S.7.",
"D = u u @ u u e e e u u i u $ G } = e a u = u e u p x u z c p N $.; u i = u u e z e z i d n q c ' = u i 9 e = $ u u u u u c c z ",
"K & h p p k k p y p k a k p & V $.% p k t p k l u a k t p j t V c.& y k y j k a ; & h t h & % 2 G.- e a y h p j t t y t $ t p t ",
"N t t y r a t a u a i e i t e N } u y g e y i s a a a r a a e l o.$ t i u a y r a t a a p a a c =.; e i r y t u a a p a i a i a ",
"D B N M M M p Z M M V M B Z M ~ ] M N N M B B x M x M M N C M K x.B N Z M M M M n u c N a N n c Y.A M c N S p c M p M x p x N N ",
"Z.M.Z.M.W.Z.C.OXU.Z.Z.y.M.Z.` Z.oXm.] 8.] S.Z.W.!.7.Z.S.Z.S.` Q.OXC.M.0.Z.S.w.Y..X7.P.I.` Z.Z.7.U.Z.M.] S.Z.m.W.#XI.I.I.Z.Z.Y.W.",
"e e t e t e X N A   $ 9 t $ e 9 9 e # e 6 i   M ) # t a e $ t r r 8 & O e i e ; 0.% $ y e 8 e e $ y 7 e t & & e ( % $ a t p y t ",
"i p g i i i y L } # e 6 y $ t e 9 t & u e i # N =.; i f r a a r r r a t i g t a T.p t g y a a i t i i i a t a i T.< y a i a a i ",
"$ $ u u u $ $ K ~ ; e e u u t y 9 e ; y e u e Z X.; u i u a t t r e a u i i i c &.; $ u e u u u u i d g i a y a Y.M u y e a a u ",
"A 2 B M B C M ~ ! 2 1 ; 2 2 < 2 2 < < 1 p 1 ; A 0.4 M S C A B A B < M M x N M B Z.4 B N B B B Z 2 - M M j M j M Y.A C V B C B B ",
"H.^ / ] ] ] 7.S.b.f.9.t.0.0.7.L. X>.0.8.S.0.8.b.R.>.9.8.] y.7.D.@Xu.w.w.y.G.t.k.(.7.t.8.:.8./ t.@X5 8.' t.H.8.t.L.>.8.] ;.8./ 0.",
"J 0 0 i i s q s 0 r i s 0 w 0 F Q q w w f i s 0 d r i s w w w F | u 0 q q i i w z q f d d d s b -.e q q 0 s 0 0 u q f s r s 0 f ",
"A % ; p & p ; ; t j < j u c ; P 8.< N a N h j p p & < < p x ; B c.2 < j - j j p - ; p t h h ; p !., x p ; M ; p ; ; a t > j & j ",
"G e t a t r t a r p $ e 9 g $ A ) $ g r a & y i r t t t i a u M %.u i n i t a i c a i r t k t a %.$ u i 0 i t i p u i 7 t p e i ",
"[ 2 Z Z Z Z Z Z A B M c Z Z C [ *.A D D Z Z S Z A C Z c Z D C T v.A B Z N N Z D R C Z N Z S M D R.B M V M M D N C x N M C S x Z ",
"R.] 0.M.0.c.M.Y. X] 0.] c.c.8.R.R.) y.] ] 0.0.c. Xw.Y.&.c.t.8.c.R./ ] ] ] ] ] Y..Xt.c.=.0.0.] c.|./ ) 0.0.y.Z.] +XS.0._ 8.0.] ] ",
"u & y e t t t F D ; $ u u y u u p u u u u u ; N ~ = u u $ = $ e u $ u $ u u $ p ~ ; u a e e u u ; $ u a a p y u $.; u e $ u e u ",
"a a a y a p t T o.; p c u c c p a c n a n a u K %.; u c u p y i u c c a a c u N T.x a N p a a n a n g g a N a n T.1 y c r c a p ",
"; p x = u = = D  .% = p e p x = p p p u p u $ M ~ % $ p e ; u t $ u y $ u p $ p Y.; = a t p p p ; a i u y u u a 0.- e i e t t = ",
"E Z E Z Z Z Z @.-.C D D N S C S D N Z N S S B } z.B Z Z N B V S A V Z B Z D M D T.A S S N V V H A V N K K A S Z E.A N N N V S S ",
"Y.) ] ' ' M.' Y.R.) ' &.=.0.;.G..X] ] ] c.c.] 0.g./ Y.&.] ' ] c..X] ] ( ] &.' &.U.] =.( _ 0.) '  X7.] c.z.8.c._  X] ] ) ) 0.) x.",
"S $ p i e i u u u u i u z u = Z W = p z u z u e = u i i u p = c #.; u u u z u u 1 = i e u x = c $.p u c ; e c e = = u u p u u z ",
"G t y a y a y a g y j a a g t V o.> h p y k g l p a k a p p = c T.x p p a N a p p F i s k p i c T.< & k h a k u p a l a a j t c ",
"J t t u u u $ u r $ u u i i ; B { ; t y u a e i u t a y p x = Z } ; u y i i r t = u t u p t x c B.p & a r i a u = = u u t p = p ",
"=.P R A A R 4 ! ! 3 ! R R R A ` Y.P A ~ A A A A I V H F S D Z | Y.P P I A P A P _ R Z Z U E E E !.4 4 ~ A A R A ~ Z E H W E Z W ",
"t.) ) ) &.' ) R.R./ ] ) _ ] ! y.c.! ) _ X.) / 0.`.7.8.:./ 7./ Z.R./ ] =.....) =.{.` / / ;.7./ / Z.` ! ( ~ ~ _ ) '.` ` ! / ` / / ",
"t t r e a p u K K $ $ e u e $ @ e 9 9 9 e e $ a Q x u q i i e q u e i e i i u c | e 0 9 9 e 9 0 e . e e e 9 @ 6 | p 9 0 9 e 9 0 ",
"i y i r l a y K } $ e r e i r e r t i t r e e k ' 1 = p ; < ; ; i i c a a c u F Y.% $ t e t e t t y y r r r e r 0., $ & & & & t ",
"& p j & j ; % U P % = u % > p & ; & ; $ & & # M ' - ; a y p j p t h h & h < $ j Z.% u u 7 t $ t + & t % ; ; % % 0.* $ e $ e $ t ",
"u c a a c x ; } ! = i c $ u a i = p u e a p $ Z =.; p g t u y y a a a t j p $ M Y.* p i t p e u 7 a u e u p u y N.; u i e e e e "
};
