/* XPM */
static char *f0cb6d0d281e44d3eca67fd5c7a342d7GEEKrkjSdoJOHpXm[] = {
/* columns rows colors chars-per-pixel */
"41 64 135 2 ",
"   c None",
".  c #33312F",
"X  c #3D372A",
"o  c #2D2E31",
"O  c #373737",
"+  c #3C3A35",
"@  c #363738",
"#  c #4A3D25",
"$  c #423929",
"%  c #443E31",
"&  c #54421E",
"*  c #5B471E",
"=  c #5E491D",
"-  c #704F0C",
";  c #73510B",
":  c #7C5508",
">  c #634B1B",
",  c #6E5016",
"<  c #6D521D",
"1  c #765614",
"2  c #795712",
"3  c #7D5912",
"4  c #76581A",
"5  c #594725",
"6  c #594825",
"7  c #59503D",
"8  c #6C5425",
"9  c #63522F",
"0  c #745922",
"q  c #645535",
"w  c #4F4F4F",
"e  c #565044",
"r  c #53514E",
"t  c #4E4F50",
"y  c #525252",
"u  c #595753",
"i  c #5A5856",
"p  c #5C5C5C",
"a  c #605F5C",
"s  c #6F6043",
"d  c #636363",
"f  c #686662",
"g  c #6C6C6C",
"h  c #757066",
"j  c #737373",
"k  c #7C7C7C",
"l  c #855A04",
"z  c #8B5D01",
"x  c #845C0D",
"c  c #805A10",
"v  c #8F6103",
"b  c #8B600B",
"n  c #966401",
"m  c #986601",
"M  c #9D6A03",
"N  c #916408",
"B  c #A36D01",
"V  c #838383",
"C  c #8D8D8D",
"Z  c #8D8E8E",
"A  c #8E8E8E",
"S  c gray56",
"D  c #8C8C8C",
"F  c #909090",
"G  c gray57",
"H  c #929292",
"J  c #939494",
"K  c gray58",
"L  c #959595",
"P  c gray59",
"I  c #939393",
"U  c #979798",
"Y  c #989898",
"T  c #999998",
"R  c gray60",
"E  c #9A9A9A",
"W  c #9B9B9B",
"Q  c #9B9B9C",
"!  c gray61",
"~  c #9D9D9D",
"^  c #9D9E9E",
"/  c gray62",
"(  c #9F9F9F",
")  c #9B9B9B",
"_  c #A0A0A0",
"`  c gray63",
"'  c #A2A2A2",
"]  c gray64",
"[  c #A4A4A4",
"{  c #A4A5A5",
"}  c gray65",
"|  c #A7A7A7",
" . c #A4A4A4",
".. c gray66",
"X. c #A9A9A9",
"o. c #AAAAAA",
"O. c #AAAAAB",
"+. c gray67",
"@. c #ABABAC",
"#. c #ACACAC",
"$. c gray68",
"%. c #AEAEAE",
"&. c #AFAFAF",
"*. c #AAAAAA",
"=. c gray69",
"-. c #B2B2B2",
";. c #B4B4B4",
":. c gray71",
">. c #B6B6B6",
",. c #B7B7B7",
"<. c gray71",
"1. c gray72",
"2. c #B9B9B9",
"3. c #B9B9BA",
"4. c gray73",
"5. c #BBBBBB",
"6. c #BCBCBC",
"7. c gray74",
"8. c #BDBDBE",
"9. c gray",
"0. c gray75",
"q. c #BCBCBC",
"w. c #C0C0C0",
"e. c #C1C1C1",
"r. c gray76",
"t. c gray77",
"y. c #C5C5C5",
"u. c #C6C6C6",
"i. c gray78",
"p. c #C4C4C4",
"a. c #CACACA",
"s. c gray81",
"d. c #C9C9C9",
"f. c #D5D5D5",
"g. c #D8D8D8",
/* pixels */
"                              y w t y t y y y w w y                               ",
"                          w p V p j F F D F F j a V p w                           ",
"                      w g D / ' d V *.} X.9.>.V d / V k g w                       ",
"                    g k V O.g.| a V &.>.X.g.9.V d ' X.U k g g                     ",
"              t y j ' a.F V 9.U p k O.9.~ 6.*.k p L E j k X.| g y t               ",
"            y y k p.O.O.' V i u r u u i u a u r r u y V _ -.s. .g y i             ",
"          y V J V k ' | k p e 4 : 1 2 2 : 1 1 1 : 4 e i V O.O.g V O.| y           ",
"        i V 1.3.) V j j s < 4 n z v m m m m n n l n 4 < s g j V ) -.%.V i         ",
"      p j V 2.} V k q 9 3 n n B z m B B B B B m l B n n 3 9 q k V L / V D g       ",
"    f V / g V h 7 q z l n B B M z n B B B B B m z B B B m l l q e h D g t.V i     ",
"  y H 9./ E f 8 l l M z n B B B z n B B B B B m z B B B n z M z l 8 f E ' ^ k u   ",
"y V V d a a 0 v M M B z n B B B z m B B B B B m l B B B m z B M B v 0 p p p k V y ",
"y F U V V y 1 n B B B z n B B B z n B B B B B m z B B B n z B B B n 1 u k D E D y ",
"y F ,.9./ i 1 n B B B z n B B B z m B B B B B n z B B B n z B B B n 1 i E } >.' y ",
"t k -.y.! i 1 n B B B z n B B B z m B B B B B m l B B B n z B B B n 2 i X.$.9.$.y ",
"t i k ^ F u 1 n B B B z n B B M z m B B B B B n z B B B n z B B B n 4 i 5.X./ V t ",
"y V k p i y 4 n B B B z n B B B l m B B B B B m z B B B n z B B B n 1 y d a p i w ",
"y F ) C V i 1 n B B B z m B B B z n B B B B B m z B B B n z B B B n 4 u V Z Z k t ",
"y D 3.w./ i 1 n B B B z n B B B z m B B B B B m z B B B n z B B B n 1 y Q | | F y ",
"t k !  .V y 1 n B B B z n B B B l m B B B B B m z B B B n z B B B n 4 i Q | L k y ",
"w d d p p r 1 n B B B z n B B B z m B B B B B m z M B B n z B B B v < u F ) k p w ",
"y @.5.' H u 4 n B B B z n B B M z m B B B B B n z B B B n z M M B , + w i i k D t ",
"y L y.y.! u 2 n B B B z n B B B z n B B B B B m z B B B n ; # # # X O y D F ;.$.y ",
"y D ;.3.! u 1 n B B B z n B B B z m B B B B B n z B B B n ; o o o o O i / r.y./ y ",
"t D L V k u 1 n B B B z n B B B z n B B B B B m v M B B n : > = = # O y k ;.5.D y ",
"y V V f a r 1 n B B B z m B B B z n B B B B B m z M B B n z B B B 4 % t d V L V y ",
"t y U i.E i 1 n B B B z n B B M v m B B B B B n v B B B n z B B B n 1 u J j i i t ",
"y V  .6.e.a 1 n B B B z n B B B z m B B B B B m z B B B n z B B B n 1 u E Q U V t ",
"y F O.@.O.p 1 n B B B z n B B B z n B B B B B m z M B B m v M B B n 1 i E | | F y ",
"t g k D ) u 1 n B B B z n B B B z n B B B B B m v B B B n v B B B n 1 i E | O.Z y ",
"y a g k V u 1 n B B B z n B B B z n B B B B B m z M B B n z B B B n 1 i ) U Z k y ",
"y D e.=.p t 1 n B B n x l M B B z n B B B B B m z M B B n z B B B n 1 i F g p i t ",
"y D X.X.F u 1 n B N # X X > B B v n B B B B B n z B B B n z B B B n 2 w p D / V t ",
"w F O.X.E i 1 n B M x $ * b B B z M B B B B B n z B B B n z B B B n 4 u V / 9.$.y ",
"w g j V ! i 1 n B B B # 1 B B B z n B B B B B n z B B B n z B B B n 1 i / } >.' y ",
"w d g j V u 1 n B B 3 $ * x B B z n B B B B B n l B B B n z B B B n 1 y V D D j y ",
"y C } F p r 1 n B c # $ $ > N B z n B B B B B n z B B B n z B B B n 4 y i p a p t ",
"y C X.} L u 1 m 3 # N l v 1 # m z n B B B B B n z B B B n z B B B n 1 u L _ ' V y ",
"y D } } ! i 1 m 1 $ m z n 2 $ m v n B B B B B n z B B B n z B B B n 1 u ) | X.F t ",
"t f j j g r 1 n n 1 * 5 5 > c M z m B B B B B n z B B B n z B B B n 1 p 3.-.F d t ",
"t f j g g y 1 n B M > & & 2 B B z n B B B B B M z B B B n z B B B n 1 i E Z k d t ",
"y F X.| ) u 1 n B B B l n B B B z n B B B B B n z B B B n z B B B n 1 r p d V Z y ",
"t F O.X.E i 1 n B B B z n B B B z n B B B B B n z B B B n z B B B n 1 u L ' | H y ",
"y =.w. .E i 1 n B B B z n B B B z n B B B B B n z B B B n z B B B n 1 i E } 0.=.y ",
"y 3.X.f f y 1 n B B B z n B B B z n B B B B B M l B B B n z B B B n 4 r f L ;.Q y ",
"t V D k j y 1 n B B B z n B B B z M B B B B B n z B B B n v B B B x 5 y j k k g t ",
"y a V X.E i 1 n B B B z n B B B z n B B B B B n z B B B n l x c x > @ i U k d a t ",
"t D } X.` i 1 n B B B z n B B B z n B B B B B n v B B B n - X . . . O u )  .X.F y ",
"y D ' ;.t.a 1 n B B B z n B B B z n B B B B B m z B B B n - . . . . O i U } w.=.y ",
"t d d D i.a 1 n B B B z n B B B z n B B B B B n z B B B n l x x x * O t d H u.>.y ",
"y g k V D u 1 n B B B z n B B B z n B B B B B m z B B B n z B B B x 5 u j k V k y ",
"y F X.L f r 1 n B B B z n B B B z M B B B B B m z B B B n z B B B n 1 i E k g d t ",
"y D %.@.! p 1 n B B B z n B B B z n B B B B B n z B B B n z B B B n 1 i E } } D y ",
"t D 6.t.L u 1 n B B B z n B B B z n B B B B B n l B B B n z B B B n 1 i E X.X.D y ",
"w a f g a y 1 n B B B z n B B B z n B B B B B m z B B B n z B B B n 2 i E i.! p t ",
"t j V V k y 1 n B B B z n B B B z M B B B B B n z B B B n z B B B n 1 y g V V j y ",
"w C O.| E i 1 n B B B z n B B B z n B B B B B m z B B B n z B B B n 1 r g g U ` y ",
"y V / | E i 1 n B B B z n B B B z n B B B B B n z B B B n z B B B n 1 i ! =.t.%.y ",
"w p V / K i 1 n B B B z n B B B z n B B B B B n z B B B n z B B B n 1 i L a.u.S y ",
"y ' F a p y 1 n B B B z n B B B z n B B B B B m l B B B n z B B B n 2 r a >.u.D t ",
"y E ' C V y 1 z v v v l l v v v l v v v v v v z l v v v z l v v v z 1 u V V j d y ",
"y _ ,.| Q p 9 8 < 8 8 8 8 8 8 < 8 8 8 8 8 8 8 8 < 8 8 < 8 8 8 8 8 8 9 i E V V V y ",
"y E ' F V u w t w w w t t t t t w t w w w w t t t w w t y t t w w w w u V F ' E y ",
"w y y y y w w w w w w w w w w w w w w w w w w w w w w w w w w w w w t w y y y t t "
};
