/* XPM */
static char *_8b5413b3c074708a3ca584eb448009c0yftx5PVY1NLl9lq[] = {
/* columns rows colors chars-per-pixel */
"49 64 67 1 ",
"  c None",
". c #33322E",
"X c #3C372C",
"o c #3E382A",
"O c #3B3B3A",
"+ c #453B26",
"@ c #4C3F25",
"# c #413929",
"$ c #5B4517",
"% c #5E4719",
"& c #7C580F",
"* c #6B4F17",
"= c #644C1A",
"- c #694E19",
"; c #6E5116",
": c #755414",
"> c #7B5711",
", c #7C5811",
"< c #73561B",
"1 c #76581D",
"2 c #544322",
"3 c #594F3C",
"4 c #5C523C",
"5 c #654F23",
"6 c #6C5425",
"7 c #67542D",
"8 c #695429",
"9 c #725721",
"0 c #765A21",
"q c #4E4E4E",
"w c #504F4E",
"e c #555047",
"r c #585142",
"t c #52504B",
"y c #59544B",
"u c #4E4F51",
"i c #545454",
"p c #585857",
"a c #5C5C5C",
"s c #636363",
"d c #6C6C6C",
"f c #6E6F70",
"g c #747474",
"h c #7C7C7C",
"j c #855A01",
"k c #8C5E01",
"l c #885E0C",
"z c #805B10",
"x c #8E6005",
"c c #8C610A",
"v c #946301",
"b c #996601",
"n c #9D6901",
"m c #916409",
"M c #A36D01",
"N c #858075",
"B c #838383",
"V c #8C8C8C",
"C c #949494",
"Z c #9C9C9C",
"A c #A4A4A4",
"S c #AAAAAA",
"D c #B3B3B3",
"F c #BBBBBB",
"G c #C3C3C3",
"H c gray79",
"J c gray84",
/* pixels */
"             iiiiiaiaii                          ",
"           iiBgdCZCCCahgii                       ",
"         qiBSSggSASHAsVZVhiq                     ",
"       qaVAhGGggDGDJSsVSVgVhiq                   ",
"      qsZSFVVhaahBgBgidghCDFhiq                  ",
"     shhZSABaqqqqqqqqqqqsVDDBhVd                 ",
"    dCDZgBBaq           qdBhhAGBa      jkvvjj    ",
"   shSFVBiq               qaBVACNg r8jkjnMMvjj   ",
"  dCBhhii                   upBsZN38jvnkMMMvjkkj ",
" sASChi                       iit0jjkMnjnMMvkMbjj",
"iVgaai                         w<mMbkMnknMMkvMnjj",
"aCAZdq                         w<bMbkMMknMMvvMnjj",
"iCHDhq                         w<vMbxMMjnMMkvMbjj",
"isASgq                         w1vMvxMnknMMvvMnjj",
"ihgdaq                         w<bMbxMnjnMMvvMbjj",
"iCVhsq                         w<vMbxMMknMMkvMnjj",
"iZFDgq                         w<bMbkMMknMMkvMnjj",
"ihACdq                         u<bMbkMbknMMvvMnjj",
"igdsaq                         t5kMbkMMjnMMvvMbjj",
"iDFSgq                         qO=nbkMnknMMxvMnjj",
"iZHFgq                         qO.=lvMnknMMvkMnjj",
"iCAAgq                         iO.X=kMMjnMMvvMbjj",
"iCgsiq                         qO*xkkMMknMMvvMnjj",
"qsAAdq                         w5xMbkMnjnMMkvMnjj",
"ihSHVq                         w1bMbkMMjMMMvvMnjj",
"iZSFhq                         w<bMbkMMkbMMkvMnjj",
"idgChq                         w<bMvkMnjnMMvkMnjj",
"idVBsq                         w<bMbkMMknMMkvMbjj",
"iZHVaq                         w<bMvvMnjnMMvvMbjj",
"iCASgq                         w<bMbkMMknMMvvMnjj",
"iBCZgq                         w<bMbkMnknMMvvMnjj",
"iasVgq                         w<vMbkMnknMMkvMbj&",
"iVZgiw                         w<bMbxMMkMMnlvMnjj",
"pCSZfu                         w<bMvkMMjnM=#-Mbjj",
"pCSAgq                         w<bMbkMnknMm2X:bjj",
"isddau                         w<vMbkMnknMM=@lnjj",
"ihhBsw                         w<bMvkMnjnM:#=Mnjj",
"iCASgq                         w<bMbvMMkn:-%=znjj",
"iADAgq                         w<bMbkMnkb2>b$2bjj",
"aGAVdq                         w<bMbkMMjb-;:%<njj",
"pAhspq                         w5vMvkMnknM-+:Mbjj",
"usCAgq                         uO*nbkMMjnMMkkMbjj",
"iVASgq                         wO.=mvMnkbMMvvMnjj",
"iCAHVq                         uO.o%kMnknMMvvMnjj",
"iasDCq                         tO=cjmMnknMMvvMbjj",
"iBVhsq                         q5kMbkMnknMMvvMnjj",
"iCSCsq                         w1bMbvMnknMMkkMnjj",
"iCGDgq                         w<vMbkMnknMMvvMbjj",
"igCBsq                         w<bMvkMnkbMMvvMnjj",
"iddgaq    assssdffffsiwpaassa  w<bMbkMMknMMxvMnjj",
"iCAShqqqishVVCZZAAZACdssddhVgiit<bMbkMMjnMMvxMnjj",
"iBASgisashBBBVCCVBCASCVgasgBfisi<vMbkMnknMMvvMbjj",
"isVZfgAAZsasaassssBVCZVBBdiasidp<bMvkMnknMMvvMbjj",
"pDBaigDFSDAZAZZZZVsaasaaaapaiiai<bMbkMMjnMMvvMbjj",
"iZACdgAAAAAFSDDAAACCCCCCCCBiqwiw<bMbvMnknMMvvMnjj",
"aDDAgasssssdssssssssssssssaqwuqw<jbvkMnknMMkvMnjj",
"igddaqquqqqqqqtuqquqqwqqwqquwuut441kkMnknMMvvMbj&",
"                                  4<jbnknMMvvMnjj",
"                                   481vjnMMvvMnjj",
"                                    uw69mvnvkMbjj",
"                                     qut91lvvMbjj",
"                                        ww6:lnvjj",
"                                          ww7&>>>",
"                                            eweew"
};
