/* XPM */
static char *_646585723963[] = {
/* columns rows colors chars-per-pixel */
"64 64 199 2 ",
"   c #1C1D2E",
".  c #2D2836",
"X  c #513633",
"o  c #673B30",
"O  c #4F403C",
"+  c #57413C",
"@  c #6B4336",
"#  c #69473C",
"$  c #744937",
"%  c #7C513D",
"&  c #333350",
"*  c #4A3A43",
"=  c #5D4646",
"-  c #6F4D44",
";  c #764E43",
":  c #7C5343",
">  c #785549",
",  c #6A5858",
"<  c #7B5E59",
"1  c #775A54",
"2  c #5C5A66",
"3  c #525E7D",
"4  c #4C5372",
"5  c #635C63",
"6  c #55607D",
"7  c #75676E",
"8  c #696C7B",
"9  c #726F76",
"0  c #82553E",
"q  c #875B48",
"w  c #885D54",
"e  c #8E624A",
"r  c #986447",
"t  c #9D694C",
"y  c #8D665C",
"u  c #8F6B5D",
"i  c #876458",
"p  c #976957",
"a  c #A37355",
"s  c #A87759",
"d  c #AE7C5A",
"f  c #A57558",
"g  c #886A63",
"h  c #9C6D60",
"j  c #9B766D",
"k  c #9D7260",
"l  c #836F7C",
"z  c #9C7774",
"x  c #847479",
"c  c #A66E65",
"v  c #A87969",
"b  c #A27A74",
"n  c #BD8C6B",
"m  c #B98663",
"M  c #AB8675",
"N  c #B68B76",
"B  c #BA927C",
"V  c #AB836A",
"C  c #C4997C",
"Z  c #CA9B77",
"A  c #C08B6A",
"S  c #D3A07A",
"D  c #535E81",
"F  c #566284",
"G  c #59668A",
"H  c #5D6A8B",
"J  c #5A6686",
"K  c #636D8B",
"L  c #66728F",
"P  c #68738E",
"I  c #6B7184",
"U  c #7A7B86",
"Y  c #697595",
"T  c #6A7897",
"R  c #727A97",
"E  c #957E83",
"W  c #7D808B",
"Q  c #79849A",
"!  c #7987A5",
"~  c #7C8BA9",
"^  c #7F8DA6",
"/  c #86868D",
"(  c #978687",
")  c #838391",
"_  c #86879B",
"`  c #95979D",
"'  c #B99784",
"]  c #A58F91",
"[  c #B49C97",
"{  c #BA9791",
"}  c #BFA292",
"|  c #868EA2",
" . c #8A8EA0",
".. c #8992A6",
"X. c #8B95AB",
"o. c #8291AD",
"O. c #979BA8",
"+. c #8A99B4",
"@. c #959EB2",
"#. c #95A1B6",
"$. c #9AA3B5",
"%. c #95A3BB",
"&. c #99A6BA",
"*. c #9CA9BF",
"=. c #A4A5AD",
"-. c #ABADB3",
";. c #A2ABBC",
":. c #A3A7B1",
">. c #ACB1BB",
",. c #B7B7BB",
"<. c #B9ADA7",
"1. c #C99C88",
"2. c #CDA58A",
"3. c #CDA286",
"4. c #D3A683",
"5. c #DCAC83",
"6. c #D5AA8B",
"7. c #D9AE8E",
"8. c #C8A896",
"9. c #D3AD96",
"0. c #DBB595",
"q. c #D5B29B",
"w. c #DAB69D",
"e. c #D9B599",
"r. c #E1BB9A",
"t. c #C8B3A8",
"y. c #DCBCA4",
"u. c #D8B8A6",
"i. c #D2BEB2",
"p. c #C6B5AD",
"a. c #E3BFA9",
"s. c #E1BEA4",
"d. c #DAC79E",
"f. c #D0C6B3",
"g. c #E5C2A6",
"h. c #E1C4B2",
"j. c #E9CAB5",
"k. c #E4C9BA",
"l. c #EFD1BB",
"z. c #9DACC1",
"x. c #A1ADC1",
"c. c #A2B0C3",
"v. c #ACB4C1",
"b. c #AEB1C8",
"n. c #AAB9CD",
"m. c #A6B5CA",
"M. c #B4BAC3",
"N. c #BCBECB",
"B. c #B9BCC4",
"V. c #C2BEC1",
"C. c #BAC1CB",
"Z. c #AFC0D4",
"A. c #B4C3D6",
"S. c #BCC2D0",
"D. c #BFC8D5",
"F. c #B7C6D8",
"G. c #BCCBDB",
"H. c #B9C7D8",
"J. c #C2C5CE",
"K. c #CCCECF",
"L. c #C7C4C3",
"P. c #D2CFCC",
"I. c #DED4CF",
"U. c #C1C7D0",
"Y. c #C5CBD4",
"T. c #CBCDD4",
"R. c #C3CEDC",
"E. c #CDCFD8",
"W. c #D2CED1",
"Q. c #CED1D5",
"!. c #C3D0DE",
"~. c #CCD3DC",
"^. c #D2D4D5",
"/. c #D2D6DB",
"(. c #D5D9DC",
"). c #DADCDD",
"_. c #D9D9D7",
"`. c #E6DCC9",
"'. c #F1D7C7",
"]. c #E3DBD0",
"[. c #DEE0DF",
"{. c #E8E1D7",
"}. c #C5D4E2",
"|. c #C8D6E3",
" X c #D4DAE1",
".X c #DBDEE1",
"XX c #E0DFE1",
"oX c #DEE1E2",
"OX c #E3E4E5",
"+X c #EAE9E6",
"@X c #E5E6E9",
"#X c #E7E8E9",
"$X c #ECECEC",
"%X c #EBE7E4",
"&X c #F1F1EE",
"*X c #EDEFF0",
"=X c #F4F4F2",
"-X c #F8F7F4",
";X c None",
/* pixels */
";X;X;X;X;X;X;X;X;X;X;X;X;X;X;X;X;X;X;X;X;X;X;X;X;X;X;X;X;X;X;X;X;X;X;X;X;X;X;X;X;X;X;X;X;X;X;X;X;X;X;X;X;X;X;X;X;X;X;X;X;X;X;X;X",
";X;X;X;X;X;X;X;X;X;X;X;X;X;X;X;X;X;X;X;X;X;X;X;X;X;X;X;X;X;X;X;X;X;X;X;X;X;X;X;X;X;X;X;X;X;X;X;X;X;X;X;X;X;X;X;X;X;X;X;X;X;X;X;X",
";X;X;X;X;X;X;X;X;X;X;X;X;X;X;X;X;X;X;X;X;X;X;X;X;X;X;X;X;X;X;X;X;X;X;X;X;X;X;X;X;X;X;X;X;X;X;X;X;X;X;X;X;X;X;X;X;X;X;X;X;X;X;X;X",
";X;X;X;X;X;X;X;X;X;X;X;X;X;X;X;X;X;X;X;X;X;X;X;X;X;X;X;X;X;X;X;X;X;X;X;X;X;X;X;X;X;X;X;X;X;X;X;X;X;X;X;X;X;X;X;X;X;X;X;X;X;X;X;X",
";X;X;X;X;X;X;X;X;X;X;X;X;X;X;X;X;X;X;X;X;X;X;X;X;X;X;X;X;X;X;X;X;X} ' y O ;X;X;X;X;X;X;X;X;X;X;X;X;X;X;X;X;X;X;X;X;X;X;X;X;X;X;X",
";X;X;X;X;X;X;X;X;X;X;X;X;X;X;X;X;X;X;X;X;X;X;X;X;X;X;X;X;X;X;X;Xy.g.q.V - = ;X;X;X;X;X;X;X;X;X;X;X;X;X;X;X;X;X;X;X;X;X;X;X;X;X;X",
";X;X;X;X;X;X;X;X;X;X;X;X;X;X;X;X;X;X;X;X;X;X;X;X;X;X;X;X;X;X;X;Xl.'.a.3.p - ;X;X;X;X;X;X;X;X;X;X;X;X;X;X;X;X;X;X;X;X;X;X;X;X;X;X",
";X;X;X;X;X;X;X;X;X;X;X;X;X;X;X;X;X;X;X;X;X;X;X;X;X;X;X;X;X;X;Xu.u.i.h.' q 1 1 ;X;X;X;X;X;X;X;X;X;X;X;X;X;X;X;X;X;X;X;X;X;X;X;X;X",
";X;X;X;X;X;X;X;X;X;X;X;X;X;X;X;X;X;X;X;X;X;X;X;X;X;X;X;X;X;X;X2.u k ' # X 1 g ;X;X;X;X;X;X;X;X;X;X;X;X;X;X;X;X;X;X;X;X;X;X;X;X;X",
";X;X;X;X;X;X;X;X;X;X;X;X;X;X;X;X;X;X;X;X;X;X;X;X;X;X;X;X;X;X;Xh.{ 9.B y 1 g g ;X;X;X;X;X;X;X;X;X;X;X;X;X;X;X;X;X;X;X;X;X;X;X;X;X",
";X;X;X;X;X;X;X;X;X;X;X;X;X;X;X;X;X;X;X;X;X;X;X;X;X;X;X;X;X;X;Xj.'.u.u v N z b ;X;X;X;X;X;X;X;X;X;X;X;X;X;X;X;X;X;X;X;X;X;X;X;X;X",
";X;X;X;X;X;X;X;X;X;X;X;X;X;X;X;X;X;X;X;X;X;X;X;X;X;X;X;X;X;X;Xj.j.u.v p z M c ;X;X;X;X;X;X;X;X;X;X;X;X;X;X;X;X;X;X;X;X;X;X;X;X;X",
";X;X;X;X;X;X;X;X;X;X;X;X;X;X;X;X;X;X;X;X;X;X;X;X;X;X;X;X;X;X;Xj.a.1.c w b b c ;X;X;X;X;X;X;X;X;X;X;X;X;X;X;X;X;X;X;X;X;X;X;X;X;X",
";X;X;X;X;X;X;X;X;X;X;X;X;X;X;X;X;X;X;X;X;X;X;X;X;X;X;X;X;X;X;X;Xa.1.h y z z ;X;X;X;X;X;X;X;X;X;X;X;X;X;X;X;X;X;X;X;X;X;X;X;X;X;X",
";X;X;X;X;X;X;X;X;X;X;X;X;X;X;X;X;X;X;X;X;X;X;X;X;X;X;X;X;X;X;X;X' b w > g j ;X;X;X;X;X;X;X;X;X;X;X;X;X;X;X;X;X;X;X;X;X;X;X;X;X;X",
";X;X;X;X;X;X;X;X;X;X;X;X;X;X;X;X;X;X;X;X;X;X;X;X;X;X;X;X;X;X;X;X' > > > y b ;X;X;X;X;X;X;X;X;X;X;X;X;X;X;X;X;X;X;X;X;X;X;X;X;X;X",
";X;X;X;X;X;X;X;X;X;X;X;X;X;X;X;X;X;X;X;X;X;X;X;X;X;X;X;X;X;X;X;Xy.' p q w ( ;X;X;X;X;X;X;X;X;X;X;X;X;X;X;X;X;X;X;X;X;X;X;X;X;X;X",
";X;X;X;X;X;X;X;X;X;X;X;X;X;X;X;X;X;X;X;X;X;X;X;X;X;X;X;X;X;X;X;Xy.3.' v ( S.!.;X;X;X;X;X;X;X;X;X;X;X;X;X;X;X;X;X;X;X;X;X;X;X;X;X",
";X;X;X;X;X;X;X;X;X;X;X;X;X;X;X;X;X;X;X;X;X;X;X;X;X;X;X;X;X;X;X;Xy.9.h.I. XR.Y.;X;X;X;X;X;X;X;X;X;X;X;X;X;X;X;X;X;X;X;X;X;X;X;X;X",
";X;X;X;X;X;X;X;X;X;X;X;X;X;X;X;X;X;X;X;X;X;X;X;X;X;X;X;X;X;X;X%Xk.k.#X*XoX.X@X@X#X;X;X;X;X;X;X;X;X;X;X;X;X;X;X;X;X;X;X;X;X;X;X;X",
";X;X;X;X;X;X;X;X;X;X;X;X;X;X;X;X;X;X;X;X;X;X;X;X;X;X;X;X;X&X=XXXOX$X#X$X$X=X&X$X@X XG.;X;X;X;X;X;X;X;X;X;X;X;X;X;X;X;X;X;X;X;X;X",
";X;X;X;X;X;X;X;X;X;X;X;X;X;X;X;X;X;X;X;X;X;X;X;X;X;X;X-X=X=X=XXX$X$XOX&X&X*X&X$XOX XG.;X;X;X;X;X;X;X;X;X;X;X;X;X;X;X;X;X;X;X;X;X",
";X;X;X;X;X;X;X;X;X;X;X;X;X;X;X;X;X;X;X;X;X;X;X;X;X;X-X=X=X=X=X=X=X&X$X$X$X=X*X$X.X/.D.G.;X;X;X;X;X;X;X;X;X;X;X;X;X;X;X;X;X;X;X;X",
";X;X;X;X;X;X;X;X;X;X;X;X;X;X;X;X;X;X;X;X;X;X;X;X;X;X-X-X=X=X-X=X&X&X`.{.*X*X*X@XoXR.F.!.;X;X;X;X;X;X;X;X;X;X;X;X;X;X;X;X;X;X;X;X",
";X;X;X;X;X;X;X;X;X;X;X;X;X;X;X;X;X;X;X;X;X;X;X;X;X-X-X#X=X=X=X-X=X{.d.`.&X=X$X@XR.A.H.}.;X;X;X;X;X;X;X;X;X;X;X;X;X;X;X;X;X;X;X;X",
";X;X;X;X;X;X;X;X;X;X;X;X;X;X;X;X;X;X;X;X;X;X;X;X;X-X#XB.&X-X=X=X&Xf.<.].&X=X#X!.D.R.G.}.;X;X;X;X;X;X;X;X;X;X;X;X;X;X;X;X;X;X;X;X",
";X;X;X;X;X;X;X;X;X;X;X;X;X;X;X;X;X;X;X;X;X;X;X;X-X=X$XOX=X-X=X=X&X`.L.%X*X$X.X X|.G.G.;X;X;X;X;X;X;X;X;X;X;X;X;X;X;X;X;X;X;X;X;X",
";X;X;X;X;X;X;X;X;X;X;X;X;X;X;X;X;X;X;X;X;X;X;X;X-X=X&X=X=X&X=X=X&X&X+X&X*X*X$X XA.A.!.;X;X;X;X;X;X;X;X;X;X;X;X;X;X;X;X;X;X;X;X;X",
";X;X;X;X;X;X;X;X;X;X;X;X;X;X;X;X;X;X;X;X;X;X;X-X-X=X&X&X@XS.E.@X$X$X#X%X=X$X~.A.A.G.}.;X;X;X;X;X;X;X;X;X;X;X;X;X;X;X;X;X;X;X;X;X",
";X;X;X;X;X;X;X;X;X;X;X;X;X;X;X;X;X;X;X;X;X;X;X=X=X#X#X&X XU.x.W.+XXX].k.OX XG.n.A.G.}.;X;X;X;X;X;X;X;X;X;X;X;X;X;X;X;X;X;X;X;X;X",
";X;X;X;X;X;X;X;X;X;X;X;X;X;X;X;X;X;X;X;X;X;X-X=X&X+XP.XX@X.XY. X+X].9.{ E Y &.A.A.G.}.;X;X;X;X;X;X;X;X;X;X;X;X;X;X;X;X;X;X;X;X;X",
";X;X;X;X;X;X;X;X;X;X;X;X;X;X;X;X;X;X;X;X;X;Xb.b.N.W.i.,.N.V.E.W.V.i.1.1.] = & ! A.R.}.;X;X;X;X;X;X;X;X;X;X;X;X;X;X;X;X;X;X;X;X;X",
";X;X;X;X;X;X;X;X;X;X;X;X;X;X;X;X;X;X;X;X;X;X[ ] 9 } d.q.8.<.t.t.8.q.w.2.f : X & %.G.|.;X;X;X;X;X;X;X;X;X;X;X;X;X;X;X;X;X;X;X;X;X",
";X;X;X;X;X;X;X;X;X;X;X;X;X;X;X;X;X;X;X;X;Xg.g.7.A B 2.S e.w.g.w.0.9.7.C w % # . 3 G.;X;X;X;X;X;X;X;X;X;X;X;X;X;X;X;X;X;X;X;X;X;X",
";X;X;X;X;X;X;X;X;X;X;X;X;X;X;X;X;X;X;X;X;Xr.r.7.1.0 @ m Z 4.e.d.w.e.9.v q ; *   L }.;X;X;X;X;X;X;X;X;X;X;X;X;X;X;X;X;X;X;X;X;X;X",
";X;X;X;X;X;X;X;X;X;X;X;X;X;X;X;X;X;X;X;X;X5.S 4.4.n $ % s d m Z 7.u.N q # 1 4 P F.|.;X;X;X;X;X;X;X;X;X;X;X;X;X;X;X;X;X;X;X;X;X;X",
";X;X;X;X;X;X;X;X;X;X;X;X;X;X;X;X;X;X;X;X5.5.S Z S 6.2.V e f s a s t q @ ; ) D ~ G.}.;X;X;X;X;X;X;X;X;X;X;X;X;X;X;X;X;X;X;X;X;X;X",
";X;X;X;X;X;X;X;X;X;X;X;X;X;X;X;X;X;X;X;Xn n d r r t a d e # > > @ @ o @ l X.3 ! G.}.;X;X;X;X;X;X;X;X;X;X;X;X;X;X;X;X;X;X;X;X;X;X",
";X;X;X;X;X;X;X;X;X;X;X;X;X;X;X;X;X;X;X;X;Xy i q % $ q p e # = - - , 7  ...X.3 Y A.|.;X;X;X;X;X;X;X;X;X;X;X;X;X;X;X;X;X;X;X;X;X;X",
";X;X;X;X;X;X;X;X;X;X;X;X;X;X;X;X;X;X;X;X;X;X;X;X( < 1 1 , 2 2 2 I Q $.#._ $.J J Z.|.;X;X;X;X;X;X;X;X;X;X;X;X;X;X;X;X;X;X;X;X;X;X",
";X;X;X;X;X;X;X;X;X;X;X;X;X;X;X;X;X;X;X;X;X;X;X;X;X;X7 5 I 8 I _ ..@.&.X.| *.P H n.}.;X;X;X;X;X;X;X;X;X;X;X;X;X;X;X;X;X;X;X;X;X;X",
";X;X;X;X;X;X;X;X;X;X;X;X;X;X;X;X;X;X;X;X;X;X;X;X;X;X) 5 W O.>.M.;.&.&...X.z.Q F n.!.;X;X;X;X;X;X;X;X;X;X;X;X;X;X;X;X;X;X;X;X;X;X",
";X;X;X;X;X;X;X;X;X;X;X;X;X;X;X;X;X;X;X;X;X;X;X;X;X;XO.U ,.Q.^.Q.C.;.$.| X.z.Q F n.G.;X;X;X;X;X;X;X;X;X;X;X;X;X;X;X;X;X;X;X;X;X;X",
";X;X;X;X;X;X;X;X;X;X;X;X;X;X;X;X;X;X;X;X;X;X;X;X;X;XK.=.^.[.[._.Q.C.*.X.+.z.^ 6 n.}.;X;X;X;X;X;X;X;X;X;X;X;X;X;X;X;X;X;X;X;X;X;X",
";X;X;X;X;X;X;X;X;X;X;X;X;X;X;X;X;X;X;X;X;X;X;X;X;X;XOXK.Q.[.oX(./.T.B.;.;.c.~ F m.G.;X;X;X;X;X;X;X;X;X;X;X;X;X;X;X;X;X;X;X;X;X;X",
";X;X;X;X;X;X;X;X;X;X;X;X;X;X;X;X;X;X;X;X;X;X;X;X;X;X$X[._.[.oX[.).Q.Q.J.C.n.+.F c.}.;X;X;X;X;X;X;X;X;X;X;X;X;X;X;X;X;X;X;X;X;X;X",
";X;X;X;X;X;X;X;X;X;X;X;X;X;X;X;X;X;X;X;X;X;X;X;X;X;X$XOX(.[.oX[..X/./.Q.Q.S.%.F z.}.;X;X;X;X;X;X;X;X;X;X;X;X;X;X;X;X;X;X;X;X;X;X",
";X;X;X;X;X;X;X;X;X;X;X;X;X;X;X;X;X;X;X;X;X;X;X;X;X;X*XOX_.[.[.oXoX).)./.Q.D.*.G z.}.;X;X;X;X;X;X;X;X;X;X;X;X;X;X;X;X;X;X;X;X;X;X",
";X;X;X;X;X;X;X;X;X;X;X;X;X;X;X;X;X;X;X;X;X;X;X;X;X;X*X@X_.[.).oX.X.X.X X/.Y.z.G z.|.;X;X;X;X;X;X;X;X;X;X;X;X;X;X;X;X;X;X;X;X;X;X",
";X;X;X;X;X;X;X;X;X;X;X;X;X;X;X;X;X;X;X;X;X;X;X;X;X;X*X@X_.[.(.[.)..XOX.X/.R.x.H +.|.;X;X;X;X;X;X;X;X;X;X;X;X;X;X;X;X;X;X;X;X;X;X",
";X;X;X;X;X;X;X;X;X;X;X;X;X;X;X;X;X;X;X;X;X;X;X;X;X;X$X#X_._.(.[..XoXOX.X(.~.x.H +.}.;X;X;X;X;X;X;X;X;X;X;X;X;X;X;X;X;X;X;X;X;X;X",
";X;X;X;X;X;X;X;X;X;X;X;X;X;X;X;X;X;X;X;X;X;X;X;X;X*X$X#X[.(.(.(..XoXXX.X X/.x.G ~ }.;X;X;X;X;X;X;X;X;X;X;X;X;X;X;X;X;X;X;X;X;X;X",
";X;X;X;X;X;X;X;X;X;X;X;X;X;X;X;X;X;X;X;X;X;X;X;X;X#X#X#X[./.(.(..XOXoX.X(.~.v.H ~ }.;X;X;X;X;X;X;X;X;X;X;X;X;X;X;X;X;X;X;X;X;X;X",
";X;X;X;X;X;X;X;X;X;X;X;X;X;X;X;X;X;X;X;X;X;X;X;X;X#X@X@X[./.(._.(..X.X.X(./.C.Y ~ }.;X;X;X;X;X;X;X;X;X;X;X;X;X;X;X;X;X;X;X;X;X;X",
";X;X;X;X;X;X;X;X;X;X;X;X;X;X;X;X;X;X;X;X;X;X;X;X;X@XOXoX).^._././././././.~.D.Y ! }.|.;X;X;X;X;X;X;X;X;X;X;X;X;X;X;X;X;X;X;X;X;X",
";X;X;X;X;X;X;X;X;X;X;X;X;X;X;X;X;X;X;X;X;X;X;X;X;X@XOXoX[.^././.^./.Q.~.T.Y.n.Y T G.|.;X;X;X;X;X;X;X;X;X;X;X;X;X;X;X;X;X;X;X;X;X",
";X;X;X;X;X;X;X;X;X;X;X;X;X;X;X;X;X;X;X;X;X;X;X;X;XOXOX[.oX^.Q.^.Q.Q.^.K.>.v.M.H T H.|.;X;X;X;X;X;X;X;X;X;X;X;X;X;X;X;X;X;X;X;X;X",
";X;X;X;X;X;X;X;X;X;X;X;X;X;X;X;X;X;X;X;X;X;X;X;X;X;X=.-.,.L.K.^.^.Q.Q.C.>.M.C.K Y A.|.;X;X;X;X;X;X;X;X;X;X;X;X;X;X;X;X;X;X;X;X;X",
";X;X;X;X;X;X;X;X;X;X;X;X;X;X;X;X;X;X;X;X;X;X;X;X;X;XW U ) 9 =.-.>.,.M.C.C.J.C.L J z.|.;X;X;X;X;X;X;X;X;X;X;X;X;X;X;X;X;X;X;X;X;X",
";X;X;X;X;X;X;X;X;X;X;X;X;X;X;X;X;X;X;X;X;X;X;X;X;X;XW ` -.` ,.B.>.:.=.$.$.@.&.J G &.|.;X;X;X;X;X;X;X;X;X;X;X;X;X;X;X;X;X;X;X;X;X",
";X;X;X;X;X;X;X;X;X;X;X;X;X;X;X;X;X;X;X;X;X;X;X;X;X;X;X;X;X;X;X;X;X;X;X;X;X;X;X;X;X;X;X;X;X;X;X;X;X;X;X;X;X;X;X;X;X;X;X;X;X;X;X;X",
";X;X;X;X;X;X;X;X;X;X;X;X;X;X;X;X;X;X;X;X;X;X;X;X;X;X;X;X;X;X;X;X;X;X;X;X;X;X;X;X;X;X;X;X;X;X;X;X;X;X;X;X;X;X;X;X;X;X;X;X;X;X;X;X",
";X;X;X;X;X;X;X;X;X;X;X;X;X;X;X;X;X;X;X;X;X;X;X;X;X;X;X;X;X;X;X;X;X;X;X;X;X;X;X;X;X;X;X;X;X;X;X;X;X;X;X;X;X;X;X;X;X;X;X;X;X;X;X;X",
";X;X;X;X;X;X;X;X;X;X;X;X;X;X;X;X;X;X;X;X;X;X;X;X;X;X;X;X;X;X;X;X;X;X;X;X;X;X;X;X;X;X;X;X;X;X;X;X;X;X;X;X;X;X;X;X;X;X;X;X;X;X;X;X"
};
