/* XPM */
static char *b3110a6ea5c24122ee0e192c149cad0bT9P8huRT0kARITyW[] = {
/* columns rows colors chars-per-pixel */
"64 64 254 2 ",
"   c None",
".  c #010204",
"X  c #080608",
"o  c #140B04",
"O  c #1A0803",
"+  c #1A1109",
"@  c #030816",
"#  c #150B15",
"$  c #280B04",
"%  c #340503",
"&  c #28160A",
"*  c #371809",
"=  c #2C1616",
"-  c #39230E",
";  c #3A2716",
":  c #2D2012",
">  c #040D28",
",  c #040E34",
"<  c #081636",
"1  c #0F142D",
"2  c #12203E",
"3  c #2F1529",
"4  c #4A100B",
"5  c #6A0304",
"6  c #7A0407",
"7  c #760818",
"8  c #6E0711",
"9  c #55230C",
"0  c #482D17",
"q  c #552C17",
"w  c #55331A",
"e  c #492B14",
"r  c #6B3314",
"t  c #590F33",
"y  c #760C2D",
"u  c #573B24",
"i  c #56342C",
"p  c #693B23",
"a  c #774729",
"s  c #724B2E",
"d  c #70421F",
"f  c #051547",
"g  c #061859",
"h  c #161854",
"j  c #2F1A54",
"k  c #142754",
"l  c #2C3859",
"z  c #041A6A",
"x  c #021B7B",
"c  c #061C74",
"v  c #131864",
"b  c #2A1A6B",
"n  c #0B2568",
"m  c #122A6D",
"M  c #0A2778",
"N  c #152C7C",
"B  c #2F2C71",
"V  c #481A57",
"C  c #511955",
"Z  c #711C52",
"A  c #712359",
"S  c #4B1C65",
"D  c #4D2A71",
"F  c #722D6E",
"G  c #592A59",
"H  c #2E4473",
"J  c #765945",
"K  c #515170",
"L  c #695D6A",
"P  c #870407",
"I  c #980407",
"U  c #900B18",
"Y  c #A80409",
"T  c #B7040B",
"R  c #A80B17",
"E  c #B90B13",
"W  c #B21218",
"Q  c #8F102E",
"!  c #B3172D",
"~  c #B43738",
"^  c #A82E18",
"/  c #C60A14",
"(  c #D30914",
")  c #DC0D1B",
"_  c #DA0B16",
"`  c #C6131A",
"'  c #C3060E",
"]  c #E30E1C",
"[  c #E60B17",
"{  c #E3101E",
"}  c #EA121E",
"|  c #D32C1D",
" . c #DA1322",
".. c #D6152A",
"X. c #E91625",
"o. c #F71929",
"O. c #F81E30",
"+. c #E21933",
"@. c #D02F31",
"#. c #F92337",
"$. c #E72C30",
"%. c #8C491A",
"&. c #99572A",
"*. c #9A5737",
"=. c #8A5033",
"-. c #AC5836",
";. c #9D633D",
":. c #AA673A",
">. c #B26638",
",. c #A95919",
"<. c #D44F30",
"1. c #D7732D",
"2. c #DE5923",
"3. c #8A1A4B",
"4. c #87214E",
"5. c #B5285A",
"6. c #8E276C",
"7. c #AA255D",
"8. c #D22C4C",
"9. c #FA2A42",
"0. c #EB3546",
"q. c #D61E40",
"w. c #8F564B",
"e. c #B24F4E",
"r. c #98694B",
"t. c #916752",
"y. c #A86947",
"u. c #B77446",
"i. c #AA7858",
"p. c #B57D58",
"a. c #B56A4E",
"s. c #934F70",
"d. c #B66870",
"f. c #A14F75",
"g. c #D15353",
"h. c #EB4E56",
"j. c #CB7550",
"k. c #CE6F6A",
"l. c #E5706F",
"z. c #EE5B62",
"x. c #E7AA34",
"c. c #E29537",
"v. c #B8835C",
"b. c #B39C5B",
"n. c #B78B64",
"m. c #BDA873",
"M. c #D68759",
"N. c #CA8953",
"B. c #D88966",
"V. c #D99A7A",
"C. c #CF8C6E",
"Z. c #E79775",
"A. c #E48D68",
"S. c #E6A576",
"D. c #ECA86E",
"F. c #D8AC56",
"G. c #031E83",
"H. c #082689",
"J. c #163889",
"K. c #03269B",
"L. c #072A97",
"P. c #0D339A",
"I. c #163A95",
"U. c #182C8A",
"Y. c #293792",
"T. c #042AA4",
"R. c #052DAD",
"E. c #0B35A7",
"W. c #133CA7",
"Q. c #0A35B7",
"!. c #143BB6",
"~. c #032DB1",
"^. c #3139B0",
"/. c #4A378C",
"(. c #6E3C94",
"). c #194399",
"_. c #1E418E",
"`. c #335094",
"'. c #1A44A7",
"]. c #1947B7",
"[. c #194BB9",
"{. c #214DAA",
"}. c #2958B9",
"|. c #3556B9",
" X c #274FB0",
".X c #3362BD",
"XX c #52508E",
"oX c #4D6396",
"OX c #6944AC",
"+X c #5570A5",
"@X c #5661BC",
"#X c #0B3CC4",
"$X c #0D3ECB",
"%X c #0E41CA",
"&X c #1645C9",
"*X c #1246D3",
"=X c #1449D5",
"-X c #144BDB",
";X c #1947D4",
":X c #1349D2",
">X c #2759C4",
",X c #2D50CF",
"<X c #2D61C7",
"1X c #3466CA",
"2X c #336AD5",
"3X c #3369D6",
"4X c #1A55E8",
"5X c #1D5DF4",
"6X c #2F6BEC",
"7X c #205BED",
"8X c #4B58D7",
"9X c #4867C3",
"0X c #467BDA",
"qX c #5176CF",
"wX c #637CC3",
"eX c #417BE5",
"rX c #973D80",
"tX c #8C6C91",
"yX c #EA7C82",
"uX c #7389B6",
"iX c #5385DB",
"pX c #6782CC",
"aX c #748AC7",
"sX c #7790CF",
"dX c #4A85E9",
"fX c #4483F3",
"gX c #4C8CF6",
"hX c #5791EE",
"jX c #699FEF",
"kX c #8E87AF",
"lX c #B2A7B8",
"zX c #AB8496",
"xX c #D08E87",
"cX c #E8908B",
"vX c #D9AD8E",
"bX c #E6AA87",
"nX c #F2AC87",
"mX c #F2BA99",
"MX c #ECB392",
"NX c #D1AEAA",
"BX c #E8B6A9",
"VX c #F6C59C",
"CX c #EBC59E",
"ZX c #F6C9A5",
"AX c #F8D3AA",
"SX c #F7CDB5",
"DX c #F7D3B8",
"FX c #E4C9B6",
"GX c #F9E0BA",
"HX c #94A4CC",
"JX c #A8B2CF",
"KX c #8798C6",
"LX c #E6C8C1",
"PX c #BEC8D5",
/* pixels */
"                                                                                                                                ",
"                                                                    u 0 0 0                                                     ",
"                                                            u 0 ; : : & & & - ; u                                               ",
"                                                          + X + + X o + & & : : - s                                             ",
"                                                        : + X o o o X X o + + + + w t.                                          ",
"                                                      0 # : + X o o + o X o o o o w r.                                          ",
"                                                      : X + + + & & - w w e u =.w w J                                           ",
"                                                    u : X + + + & w u.B.Z.S.VXAXvXt.                                            ",
"                                                    0 + o o o o o =.F.S.D.VXAXAXAXVX                                            ",
"                                                  t.0 : + + o o & a N.A.MXAXAXAXAXVX                                            ",
"                                                    u ; : + & - 0 d :.j.S.VXVXAXAXAXAX                                          ",
"                                                    s ; ; - - e d =.u.j.B.S.S.V.MXVXCX                                          ",
"                                                    J u u w e e u :.M.F.j.-.p 9 &.nXy.s                                         ",
"                                                      J =.e.y.u d u.M.M.M.v.w.y.u.S.i.                                          ",
"                                                      t.g.a.j.;.=.v.M.M.nXZXZXZXB.M.VX                                          ",
"                                                      i.A.B.-.>.:.v.N.M.S.AXGXAXM.j.mX                                          ",
"                                                        A.D.e.N.:.:.>.j.A.D.VXMXa.-.V.                                          ",
"                                                        j.A.M.a.d %.&.j.M.j.A.D.*.9 a                                           ",
"                                                        n.k.j.&.e 9 r ,.M.M.j.A.-.%.>.                                          ",
"                                                        MXbX;.p q 9 9 r >.M.N.&.r r *.                                          ",
"                                                        AXvX:.e q 9 4 9 %.u.-.d * 4 =.                                          ",
"                                                        AXvXu.p - 9 $ $ 9 %.&.r.i e.                                            ",
"                                                        VXS.u.s & 4 $ $ % r :.B.V.C.                                            ",
"                                                    K FXVXvXu.*.& & & & * r &.e.Z.C.                                            ",
"                                                k k K CXC.V.v.;.- o & $ - r %.%.:.;.                                            ",
"                                          _.N m N J.`.n.i.V.v.i.u o + o $ 9 &.&.>.J oX                                          ",
"                                    `.`.J.M N M J.I.G s p.vXv.i.s + + o O * a &.&.K }..X<X}.                                    ",
"                                `.`._.N m M m j Z 5...| y.V.p.p.y.- + o * * 9 r u }.}.{. X}.<X<X                                ",
"                            +X`.J.N m N B Z ! ..[ [ ]  .w.w.v.N.i.- o * r ^ T R 5.(.F 6.OX>X<X<X<X.X                            ",
"                          +X`.J.M M H.P.Q _ ) ] { { ]  ./.U.L p.v.; # 1 t ( ] X.+.X. . .A %X3X<X2X1X1X                          ",
"                        +X`.N M I.Q.Q.I.! ( ( ( / / ( ` b R.U.K oXY.H.g t I Y E E E E E V K.E.>X<X2X2X1X                        ",
"                        oXH m J.P.P.P.S ` / ` E / E E R b L.L.L.L.H.M g 7 E  .O.O.O.O.#.(.4X-X=X>X<X1X1X                        ",
"                      oX`.k f M c z g 3 6 6 6 6 7 P U 7 g M M H.L.!.&X,Xq.O.#.#.#.#.9.9.OX7X=X$X;X}.>X2X1X                      ",
"                      `.l 2 f z H.L.T.S ` /  .) {  .) ! !.%XQ.Q.%X*X-X;X8.O.O.#.#.#.9.9.OX5X4X-X*X}. X<X1X                      ",
"                      H k < < f z z M V E / )  .{ { [ ! E.Q.Q.Q.Q.Q.$X&X5.O.O.#.#.9.9.9.OX4X4X-X=X[.{.}.<X.X                    ",
"                      H k < < f z L.E.D { } } { { { } 3.#XQ.Q.#X#X%X%X=X5.@.g.g.g.<.g.0.@X-X$X#X%X'.).{..X1X                    ",
"                      H k 1 < f g x K.C ( ) ] ] { } } 6.*X=X=X-X-X-X-X-X7.<.A.l.D.x.F.0.8X7X7X-X%X'.).).{..X                    ",
"                      H k < < < x G.T./.2.| | 2.<.<.X.F *X=X*X-X=X=X=X-X6.0.S.A.F.x.c.8.8X5X4X-X&X).).).{.}.                    ",
"                      `.H < > f x P.Q./.x.x.1.2.| X.o.6.=X*X*X=X:X:X-X-X6.1.n.i.i.v.m.8.8X5X4X-X'.).I.'.{.}..X                  ",
"                      2 1 < > > c L.E.F | { [ } { { [ Z #X$X$X%X*X=X-X-X7.5.F rXb.rXs.8.8X7X-X$XP.J.J.).}..X}.                  ",
"                  l l k 2 @ @ . f L.L.C ( ( ( ) { { X.3.$X$X%X%X%X*X*X*X7.+.~ 6.t.s.@.8.,X-X$XQ.M M M _. X}.>X+X                ",
"                  2 @ @ @ @ . . @ M K.S T ( ( _ ) ) ] 6.$X$X%X*X:X*X*X&X8.o.O.@.<.@.X.5.$X$X#XG.< < f M ). XuXm.x.              ",
"                  < @ @ @ X . . . 1 L.b Y ' / ( ) ) } A $X$X$X$X$X#X%X Xq.o.X.X.} o.o.F $X$XH.> @ @ > f m K b.A.F.              ",
"                  > @ @ . . . . . % U.N U T T / ( _ ] Z $X$X$X#X#X#X#X^.+.o.o.O.O.O.+.^.*XQ.<   X @ @ : s c.1.b.t.f.            ",
"                  H @ . . . . . O 4 U.U.y E e.e.8.! ( 4.9X#X,X9X9X|.Q./.+.o.O.0.#.o.5.;X;XW.@     o + 9 ,.2.1.=.f.n.            ",
"                  {.> . . . . @ #     P.t g.k.` k.k.' e.PX|.^.sXHX X!.HXh.[ z.cXcX0.rX5X7X^.t     & O * r ,.1.,.w.y.            ",
"                iX{.< @ . X X f       W.C a.~ T g.vXW d.HXaX~.wXaXT.|.lXcX} yXyXcXz.(.5X7X^.3       $ 9 %.,.J XX`.|.            ",
"                0X'.z , > , f m     >X[.b e.d.Y e.xX@.kXaXJX!.sXwX^.KXtXNX@.cXLXcXl.kX6X5X!.v       4 3 G oX1X3X2X2XeX          ",
"                0X{.M g , > f J.     X>X/.W e.d.xX~ g.D T.HX9XwXwX9XqXF cXz.xXyXBX~ k.JXqX&X&X      l `.3X6X6XfXfXfXdX          ",
"                9XW.H.n f , g J.    I.W.U.R W ` k.g.| XX].<X9X9X|.|.[.6.8.g.h.0.h.0.3.k.BXlXwX      1X6XfXgXgXgXgXgXgX          ",
"                1XW.H.M g f g       I.W.Y.R Y E ` E g.kXqXsXHXsXsXwXwXrXl.l.g.g.l.0.tXxXmXZXSX    9XdXgXgXgXgXgXgXhXqX          ",
"              hX2X'.P.H.g < m       {.&X/. .T Y E @.z.zXsXsXJXpXsXsXlXtXxXl.xX~ cXcXZ.nXSXSXSXDXNXhXgXgXgXgXfXeXgXdX            ",
"              dX>XW.P.P.M g m     I.`.].D ` T T Y R E F >X|.,X9X<X,X9Xf.$.g.g.@.>.-.s.(.C.mXSXDXDXJXeXfXgXgX3XeXiX.X            ",
"              iX>XW.W.P.M n       Y.F ].B W / / / / E S ~.~.~.~.Q.Q.Q.3.[ ) X...<.g.xXNXFXDXSXSXGXLXiX6XgXgX<XdX0X              ",
"              0X[.!.].].n k       B F ].S Y I I Y T T S R.R.R.R.R.~.~.3.[ { _ @.C.v.i.C.bXxXbXmXSXFXiX3X6XdX}.iX                ",
"              0X[.[.[.].P.        D D '.S T Y Y Y Y Y b T.T.T.T.T.R.T.3._ _ ( ` -.*.w.C.BXBXMXmXZXNX0X<X2X<X<X                  ",
"            jX3X[.&X>X'.          3.D W.C T Y Y T Y Y b K.K.K.K.T.T.K.Q T P I U e.r.=.w.C.k.cXmXAXlX1X                          ",
"            hX>X&X>X>X X          4.).].C T I I I Y I b K.K.K.K.T.K.K.y P % O O $ q p J C.BXmXZX                                ",
"          iX1XW.].>X[.          V A W.W.3.E Y I P P I b K.K.K.K.H.K.G.y P % $ O O * s s t.NX                                    ",
"          |.'.I.H.J.            j D I.U.Q I 6 5 5 6 7 v G.G.G.G.G.G.G.7 6 % % % $ O @ # 1                                       ",
"        iX<X'.Y.P.g             V Y.J.U.U I T Y P 5 5 v x x x x x G.c 7 5 $ X O O $ , f 1                                       ",
"        sXtXtX+XXXN           j y I.I.B R I 6 P Y I 8 v x x x x x c v 6 6 % O O % 4 c G.h                                       ",
"        BXnXnXbXC.            t Z I.T.N U I I P 5 I 8 h z x x x x x h P 6 4 % 4 6 y H.P.                                        ",
"        BXnXZ.bXcX          h 7 V P.T.b 7 E P Y P 6 U c z z c G.G.x h P 6 5 5 6 I Q T.E.                                        "
};
