/* XPM */
static char *_646585718478[] = {
/* columns rows colors chars-per-pixel */
"64 64 225 2 ",
"   c #1B130D",
".  c #17100B",
"X  c #2F1D11",
"o  c #3B2618",
"O  c #2F2017",
"+  c #372A22",
"@  c #3D3633",
"#  c #2E2D32",
"$  c #4C2D1B",
"%  c #472916",
"&  c #522E17",
"*  c #4E301C",
"=  c #51311D",
"-  c #59351E",
";  c #482B27",
":  c #4C3323",
">  c #493628",
",  c #543B2A",
"<  c #5B3D2A",
"1  c #573724",
"2  c #582D32",
"3  c #443A33",
"4  c #493C36",
"5  c #573A35",
"6  c #532A2F",
"7  c #613A22",
"8  c #5C412E",
"9  c #4C423D",
"0  c #53433B",
"q  c #594438",
"w  c #69432E",
"e  c #644433",
"r  c #644B3C",
"t  c #6A4D3C",
"y  c #674734",
"u  c #744B33",
"i  c #774C38",
"p  c #74523C",
"a  c #7C553C",
"s  c #71462C",
"d  c #3B3E4A",
"f  c #6E3A42",
"g  c #3F444C",
"h  c #494444",
"j  c #524641",
"k  c #5D4F49",
"l  c #564A44",
"z  c #5C524B",
"x  c #555354",
"c  c #664F47",
"v  c #764749",
"b  c #6C5445",
"n  c #65554D",
"m  c #715344",
"M  c #7D5B44",
"N  c #795847",
"B  c #635855",
"V  c #775A55",
"C  c #6F4A51",
"Z  c #68655C",
"A  c #7A6352",
"S  c #5D5D62",
"D  c #6A6463",
"F  c #6B6B69",
"G  c #736C6A",
"H  c #746866",
"J  c #656871",
"K  c #6F727D",
"L  c #7B797A",
"P  c #7A7474",
"I  c #7B776B",
"U  c #87573C",
"Y  c #965D3C",
"T  c #804F33",
"R  c #855542",
"E  c #845C43",
"W  c #8C5C44",
"Q  c #8F5A4C",
"!  c #925A44",
"~  c #945C51",
"^  c #8A515D",
"/  c #8B6145",
"(  c #85644B",
")  c #8B634B",
"_  c #956345",
"`  c #946B4D",
"'  c #9A6A4C",
"]  c #836954",
"[  c #8B6955",
"{  c #956D54",
"}  c #986A53",
"|  c #97745B",
" . c #997258",
".. c #8A745D",
"X. c #A76A4A",
"o. c #A56B55",
"O. c #AE7355",
"+. c #A57659",
"@. c #B37759",
"#. c #AD6D4F",
"$. c #975B69",
"%. c #A75D6C",
"&. c #88636B",
"*. c #9D7A63",
"=. c #967966",
"-. c #8C7372",
";. c #B36A63",
":. c #AC7E64",
">. c #A37B63",
",. c #AA6474",
"<. c #B07770",
"1. c #988667",
"2. c #AD8163",
"3. c #AD8469",
"4. c #A58368",
"5. c #B68564",
"6. c #AD8A77",
"7. c #B78D74",
"8. c #BD9477",
"9. c #A69560",
"0. c #ADA273",
"q. c #C88A68",
"w. c #D68F6A",
"e. c #C49373",
"r. c #CB9B7D",
"t. c #C3967B",
"y. c #D69876",
"u. c #D8966F",
"i. c #DDA97E",
"p. c #E3A37D",
"a. c #707481",
"s. c #887F82",
"d. c #B57886",
"f. c #7F87A2",
"g. c #898485",
"h. c #968B8D",
"j. c #858796",
"k. c #999495",
"l. c #9B9A9C",
"z. c #969296",
"x. c #908F94",
"c. c #B69682",
"v. c #A48C93",
"b. c #A8969C",
"n. c #B2939D",
"m. c #B38895",
"M. c #ADAC88",
"N. c #9C9CA9",
"B. c #9298AF",
"V. c #A39EA3",
"C. c #A59EA8",
"Z. c #9CA0B3",
"A. c #ABA8AC",
"S. c #A7A4A8",
"D. c #B6A4A8",
"F. c #AAABB3",
"G. c #B1AEB3",
"H. c #B5B4B6",
"J. c #B4B4BA",
"K. c #BAB6BB",
"L. c #BABABC",
"P. c #B7B8BF",
"I. c #CB9E82",
"U. c #C78797",
"Y. c #D8899A",
"T. c #E58A9F",
"R. c #C7A389",
"E. c #D7A587",
"W. c #C5A799",
"Q. c #E3A481",
"!. c #E6A886",
"~. c #E8B597",
"^. c #D797A7",
"/. c #D697A7",
"(. c #CAA7B3",
"). c #C4BEBE",
"_. c #D9B2BD",
"`. c #D3A7B2",
"'. c #E8BEA3",
"]. c #E0ACBB",
"[. c #BDC0A9",
"{. c #DDCD9A",
"}. c #ECD29D",
"|. c #D7CAB1",
" X c #E9CEB1",
".X c #BCBCC2",
"XX c #BABDCA",
"oX c #C3BEC2",
"OX c #CABCC4",
"+X c #DBB6C1",
"@X c #E3BCCA",
"#X c #BCC0CE",
"$X c #C3C2C6",
"%X c #C5C5CB",
"&X c #CCCACD",
"*X c #C8C6CB",
"=X c #CDCDD3",
"-X c #C8CBD7",
";X c #D2CDD3",
":X c #CED1D8",
">X c #D1D0D6",
",X c #D4D4DB",
"<X c #DAD9DE",
"1X c #D3C8C9",
"2X c #E4DDC6",
"3X c #E5DBD9",
"4X c #EBE2D5",
"5X c #DCDCE3",
"6X c #D7D9E1",
"7X c #E0DFE5",
"8X c #DFE0E6",
"9X c #DFE2E9",
"0X c #E1E1E6",
"qX c #E4E5EB",
"wX c #E8E7ED",
"eX c #E9E9EE",
"rX c #E7E8ED",
"tX c #F2E9E5",
"yX c #ECEDF2",
"uX c #E7EAF0",
"iX c #EFF0F4",
"pX c #F1F2F6",
"aX c #F4F5F8",
"sX c #F1EFF2",
"dX c None",
/* pixels */
"dXdXdXdXdXdXdXdXdXdXdXdXdXdXdXdXdXdXdXdXdXdXdXdXdXdXdXdXdXdXdXdXdXdXdXdXdXdXdXdXdXdXdXdXdXdXdXdXdXdXdXdXdXdXdXdXdXdXdXdXdXdXdXdX",
"dXdXdXdXdXdXdXdXdXdXdXdXdXdXdXdXdXdXdXdXdXdXdXdXdXdXdXdXdXdXdXdX      + dXdXdXdXdXdXdXdXdXdXdXdXdXdXdXdXdXdXdXdXdXdXdXdXdXdXdXdX",
"dXdXdXdXdXdXdXdXdXdXdXdXdXdXdXdXdXdXdXdXdXdXdXdXdXdXdXdXdX+ o + O   .   @ z dXdXdXdXdXdXdXdXdXdXdXdXdXdXdXdXdXdXdXdXdXdXdXdXdXdX",
"dXdXdXdXdXdXdXdXdXdXdXdXdXdXdXdXdXdXdXdXdXdXdXdXdXdXdXdX3 > ( +. .E , o + 3 B dXdXdXdXdXdXdXdXdXdXdXdXdXdXdXdXdXdXdXdXdXdXdXdXdX",
"dXdXdXdXdXdXdXdXdXdXdXdXdXdXdXdXdXdXdXdXdXdXdXdXdXdXdXdXM O.u.p.Q.y.q.O.M 0 j n dXdXdXdXdXdXdXdXdXdXdXdXdXdXdXdXdXdXdXdXdXdXdXdX",
"dXdXdXdXdXdXdXdXdXdXdXdXdXdXdXdXdXdXdXdXdXdXdXdXdXdXdXdXO.w.p.~.~.p.w.@.X.p 9 0 dXdXdXdXdXdXdXdXdXdXdXdXdXdXdXdXdXdXdXdXdXdXdXdX",
"dXdXdXdXdXdXdXdXdXdXdXdXdXdXdXdXdXdXdXdXdXdXdXdXdXdXdXe @.u.Q.~.~.Q.q.#.' p 9 9 dXdXdXdXdXdXdXdXdXdXdXdXdXdXdXdXdXdXdXdXdXdXdXdX",
"dXdXdXdXdXdXdXdXdXdXdXdXdXdXdXdXdXdXdXdXdXdXdXdXdXdXdXt +.@.t.~.~.e.) E / [ r 9 dXdXdXdXdXdXdXdXdXdXdXdXdXdXdXdXdXdXdXdXdXdXdXdX",
"dXdXdXdXdXdXdXdXdXdXdXdXdXdXdXdXdXdXdXdXdXdXdXdXdXdXdXN  .| Q y.e.R m t N >.V 3 dXdXdXdXdXdXdXdXdXdXdXdXdXdXdXdXdXdXdXdXdXdXdXdX",
"dXdXdXdXdXdXdXdXdXdXdXdXdXdXdXdXdXdXdXdXdXdXdXdXdXdXdX .5.*.*.y.@.:.6.} o.:.H > R dXdXdXdXdXdXdXdXdXdXdXdXdXdXdXdXdXdXdXdXdXdXdX",
"dXdXdXdXdXdXdXdXdXdXdXdXdXdXdXdXdXdXdXdXdXdXdXdXdXdXdX3.y.!.E.w.#.@.E.y.q.6.=.5 ! dXdXdXdXdXdXdXdXdXdXdXdXdXdXdXdXdXdXdXdXdXdXdX",
"dXdXdXdXdXdXdXdXdXdXdXdXdXdXdXdXdXdXdXdXdXdXdXdXdXdXdX<.y.!.y.u.;.#.E.w.:.c.=.i ! dXdXdXdXdXdXdXdXdXdXdXdXdXdXdXdXdXdXdXdXdXdXdX",
"dXdXdXdXdXdXdXdXdXdXdXdXdXdXdXdXdXdXdXdXdXdXdXdXdXdXdX .q.p.q.+.i R y.e.:.=.t i dXdXdXdXdXdXdXdXdXdXdXdXdXdXdXdXdXdXdXdXdXdXdXdX",
"dXdXdXdXdXdXdXdXdXdXdXdXdXdXdXdXdXdXdXdXdXdXdXdXdXdXdXN O.q.o.W i i _ @.( < t [ dXdXdXdXdXdXdXdXdXdXdXdXdXdXdXdXdXdXdXdXdXdXdXdX",
"dXdXdXdXdXdXdXdXdXdXdXdXdXdXdXdXdXdXdXdXdXdXdXdXdXdXdXc u _ o.;.;.~ R T < % r dXdXdXdXdXdXdXdXdXdXdXdXdXdXdXdXdXdXdXdXdXdXdXdXdX",
"dXdXdXdXdXdXdXdXdXdXdXdXdXdXdXdXdXdXdXdXdXdXdXdXdXdXdXr 1 W ;.o.~ R ! w o % < dXdXdXdXdXdXdXdXdXdXdXdXdXdXdXdXdXdXdXdXdXdXdXdXdX",
"dXdXdXdXdXdXdXdXdXdXdXdXdXdXdXdXdXdXdXdXdXdXdXdXdXdXdXdX1 7 U i 7 u s & o o c dXdXdXdXdXdXdXdXdXdXdXdXdXdXdXdXdXdXdXdXdXdXdXdXdX",
"dXdXdXdXdXdXdXdXdXdXdXdXdXdXdXdXdXdXdXdXdXdXdXdXdXdXdXdX1 & - s i 7 & % % : [ dXdXdXdXdXdXdXdXdXdXdXdXdXdXdXdXdXdXdXdXdXdXdXdXdX",
"dXdXdXdXdXdXdXdXdXdXdXdXdXdXdXdXdXdXdXdXdXdXdXdXdXdXdXdXr : % = * = $ = & 1 ] b.dXdXdXdXdXdXdXdXdXdXdXdXdXdXdXdXdXdXdXdXdXdXdXdX",
"dXdXdXdXdXdXdXdXdXdXdXdXdXdXdXdXdXdXdXdXdXdXdXdXdXdXdXdXdXr * $ * = * : , V F.:X6XdXdXdXdXdXdXdXdXdXdXdXdXdXdXdXdXdXdXdXdXdXdXdX",
"dXdXdXdXdXdXdXdXdXdXdXdXdXdXdXdXdXdXdXdXdXdXdXdXdXdXdXdXdXdXt < 1 1 : c s.XX:X9XuXqXdXdXdXdXdXdXdXdXdXdXdXdXdXdXdXdXdXdXdXdXdXdX",
"dXdXdXdXdXdXdXdXdXdXdXdXdXdXdXdXdXdXdXdXdXdXdXdXdXdXdXdXdXdX*.U w 5 H N.XX6X9XyXiXuXrXdXdXdXdXdXdXdXdXdXdXdXdXdXdXdXdXdXdXdXdXdX",
"dXdXdXdXdXdXdXdXdXdXdXdXdXdXdXdXdXdXdXdXdXdXdXdXdXdXdXdXdX&X5.5.c.oX>X6XuXuXiXyXyXyXuXqX9XdXdXdXdXdXdXdXdXdXdXdXdXdXdXdXdXdXdXdX",
"dXdXdXdXdXdXdXdXdXdXdXdXdXdXdXdXdXdXdXdXdXdXdXdXdXdXyXyXpX<XR.|.qXiXyXsXiXiXyXiXiXyXuXqX9X8XdXdXdXdXdXdXdXdXdXdXdXdXdXdXdXdXdXdX",
"dXdXdXdXdXdXdXdXdXdXdXdXdXdXdXdXdXdXdXdXdXdXyXuXyXyXyXpXaXtX<XiXiXiXpXpXiXyXiXiXiXiXyXuX5X6X:XdXdXdXdXdXdXdXdXdXdXdXdXdXdXdXdXdX",
"dXdXdXdXdXdXdXdXdXdXdXdXdXdXdXdXdXdXdXdXiXyXiXiXpXpXiXpXpXpXsXiXiXpXaXpXiXaXpXaXiXyXuXuX9X6X:X&XdXdXdXdXdXdXdXdXdXdXdXdXdXdXdXdX",
"dXdXdXdXdXdXdXdXdXdXdXdXdXdXdXdXdXdXdXyXpXaXaXpXiXiXpXpXpXpXsXsXiXaXaXaXaXaXaXaXiXyX9X8X6X6X-X*XdXdXdXdXdXdXdXdXdXdXdXdXdXdXdXdX",
"dXdXdXdXdXdXdXdXdXdXdXdXdXdXdXdXdXdXdXpXaXaXpXyXiXpXpXpXaXpXpX2X}.tXaXaX7X*XXX-XqXuX5X6X6X-X%X%XdXdXdXdXdXdXdXdXdXdXdXdXdXdXdXdX",
"dXdXdXdXdXdXdXdXdXdXdXdXdXdXdXdXdXdXpXaXaX5X5XaXpXpXpXpXpXyX|.{.{.sXpX:Xa.d d H g.J.9X5X:X%X#X|.dXdXdXdXdXdXdXdXdXdXdXdXdXdXdXdX",
"dXdXdXdXdXdXdXdXdXdXdXdXdXdXdXdXdXiXyXpX5Xj.%XaXpXpXaXpXaX2XM.A.}.sXrX&Xx.x 1.E.4.# a.#X=X#XJ.L.dXdXdXdXdXdXdXdXdXdXdXdXdXdXdXdX",
"dXdXdXdXdXdXdXdXdXdXdXdXdXdXdXdXdXyXaXyX%X.X6XaXaXpXpXpXaX2X|.l.2XaX<XS.I 0.M.}.9.# g J P.P.L.$X&XdXdXdXdXdXdXdXdXdXdXdXdXdXdXdX",
"dXdXdXdXdXdXdXdXdXdXdXdXdXdXdXdXdXyXaXpXyXaXiXaXaXpXpXpXaXeX3X4XiXaX#XK Z {.M.[.9.g L F J L.K.H.oXdXdXdXdXdXdXdXdXdXdXdXdXdXdXdX",
"dXdXdXdXdXdXdXdXdXdXdXdXdXdXdXdXuXaXaXyXqXaXpXaXyXyXpXsXyXtXtXtX4X&X-.A n ..1.Z z K g.F S H.[.%X&XdXdXdXdXdXdXdXdXdXdXdXdXdXdXdX",
"dXdXdXdXdXdXdXdXdXdXdXdXdXdXdXdXuXyXaX0XXXXX%X:XXX-X,XOX X'.'.{.E.1.1.| |  .M # # L F I F z.k.S.P.dXdXdXdXdXdXdXdXdXdXdXdXdXdXdX",
"dXdXdXdXdXdXdXdXdXdXdXdXdXdXdXsXaXsX3XoXC.Z.B.Z.a.6XZ.W.~.~.~.E.2.| >.3.| ] M r 0 # D B D L g.l.L.dXdXdXdXdXdXdXdXdXdXdXdXdXdXdX",
"dXdXdXdXdXdXdXdXdXdXdXdXdXdX3XsXeXW.4.4.<.C.B.J.s.N.h.t.I.E.r.2.2.4.=.=.` p y 8 n @ h h F z.l.A.dXdXdXdXdXdXdXdXdXdXdXdXdXdXdXdX",
"dXdXdXdXdXdXdXdXdXdXdXdXdX4.2.M.c.o.X.+. . .*.1.-.>. .{ { +.5.5.e.8.9.A r 8 > * l 9 9 l L S.G.K.dXdXdXdXdXdXdXdXdXdXdXdXdXdXdXdX",
"dXdXdXdXdXdXdXdXdXdXdXdXdX` @.3. .' ` ` ` ` / ` [ ] ] =.5.e.r.7.8.2.' / 8 + * 9 q h h F z.H.K.dXdXdXdXdXdXdXdXdXdXdXdXdXdXdXdXdX",
"dXdXdXdXdXdXdXdXdXdXdXdX .X.+.{ a a E ` / ( ( ` ` A ( +.q.e.E.c.2.` / u < * > 9 2 6 5 &.S.H.dXdXdXdXdXdXdXdXdXdXdXdXdXdXdXdXdXdX",
"dXdXdXdXdXdXdXdXdXdXdX{ X.#.X.X.a 8 a M t / / a E ` ' O.5.t.E.r.{ t s 8 * , 9 9 2 2 C -.A.L.dXdXdXdXdXdXdXdXdXdXdXdXdXdXdXdXdXdX",
"dXdXdXdXdXdXdXdXdXdXdX( Y X.X.X.M M a a ( E E / a / / ' 5.8.t.4.a , * > 5 4 4 4 6 f $.v.F.dXdXdXdXdXdXdXdXdXdXdXdXdXdXdXdXdXdXdX",
"dXdXdXdXdXdXdXdXdXdXdXa Y Y X.p E _ M a p p M a r R N M { :.:.) e 8 , 8 4 @ 3 ; 6 f %.D.K.dXdXdXdXdXdXdXdXdXdXdXdXdXdXdXdXdXdXdX",
"dXdXdXdXdXdXdXdXdXdX( ! U u T i U U p E u 8 r t l m b b } @.@.U w y 8 9 4 4 j 2 f ^ ,.oXoXdXdXdXdXdXdXdXdXdXdXdXdXdXdXdXdXdXdXdX",
"dXdXdXdXdXdXdXdXdXdX/ U w , 1 , y U E p p b 0 z n c n n V ~ Q v q 9 3 9 j 9 D V $.$.m.oXdXdXdXdXdXdXdXdXdXdXdXdXdXdXdXdXdXdXdXdX",
"dXdXdXdXdXdXdXdXdXdXdXU v e q r E ! m c z n I z.s.H B k l l l j 9 9 9 4 z x g.-.d.%.n.-XdXdXdXdXdXdXdXdXdXdXdXdXdXdXdXdXdXdXdXdX",
"dXdXdXdXdXdXdXdXdXdXdXM M N N N V [ dXdXB l.;X=XK.S.h.P D B k k 0 h l j J -.N.b.%.d.n.:XdXdXdXdXdXdXdXdXdXdXdXdXdXdXdXdXdXdXdXdX",
"dXdXdXdXdXdXdXdXdXdXdXdXdXdXdXdXdXdXdXdXk.=X7X7X,X1XoXG.V.k.g.-.G B D G g.l.F.D.d.d.C.-XdXdXdXdXdXdXdXdXdXdXdXdXdXdXdXdXdXdXdXdX",
"dXdXdXdXdXdXdXdXdXdXdXdXdXdXdXdXdXdXdXdX>X5X0XqX0X5X5X,X=XOXK.A.V.h.x.k.S.F.P.(.d.d..X-XdXdXdXdXdXdXdXdXdXdXdXdXdXdXdXdXdXdXdXdX",
"dXdXdXdXdXdXdXdXdXdXdXdXdXdXdXdXdXdXdXdXqX0X0XuXqXqXqX7X5X<X,X1X$XK.G.K..XoX.X`.U.V.L.>XdXdXdXdXdXdXdXdXdXdXdXdXdXdXdXdXdXdXdXdX",
"dXdXdXdXdXdXdXdXdXdXdXdXdXdXdXdXdXdXdXdXrXqX0XqXqXuXwXwX0XqX0X<X,X=XOX*X;X-XoX^.`.b.L.:XdXdXdXdXdXdXdXdXdXdXdXdXdXdXdXdXdXdXdXdX",
"dXdXdXdXdXdXdXdXdXdXdXdXdXdXdXdXdXdXdXdXrXrX0XqXwXwXwXwXwXwXqX0X5X5X,X>X,X6XoXY./.v..X=XdXdXdXdXdXdXdXdXdXdXdXdXdXdXdXdXdXdXdXdX",
"dXdXdXdXdXdXdXdXdXdXdXdXdXdXdXdXdXdXdX0XqXeX0XqXwXeXuXeXwXwXwXqX0X5X5X,X5X5X_.U.Y.b.P.&XdXdXdXdXdXdXdXdXdXdXdXdXdXdXdXdXdXdXdXdX",
"dXdXdXdXdXdXdXdXdXdXdXdXdXdXdXdXdXdXdX0XrXeX8XqXwXwXeXyXwXwXwXwXqXqX0X5X5X8X;XU.T.D.K.$XdXdXdXdXdXdXdXdXdXdXdXdXdXdXdXdXdXdXdXdX",
"dXdXdXdXdXdXdXdXdXdXdXdXdXdXdXdXdXdXdX0XqXeX0XqXqXwXwXwXwXeXuXwXqXqXqX7X<X8X7X(.T.(.K.dXdXdXdXdXdXdXdXdXdXdXdXdXdXdXdXdXdXdXdXdX",
"dXdXdXdXdXdXdXdXdXdXdXdXdXdXdXdXdXdXdX0XqXeXqX0XwXwXwXwXyXeXeXwXwXwXqX0X<X8X9X_.Y.Y.OXdXdXdXdXdXdXdXdXdXdXdXdXdXdXdXdXdXdXdXdXdX",
"dXdXdXdXdXdXdXdXdXdXdXdXdXdXdXdXdXdXdXqXrXeXrXqXqXqXwXuXwXwXyXwXwXqXqXqX8X8X9X+XY.Y.&XdXdXdXdXdXdXdXdXdXdXdXdXdXdXdXdXdXdXdXdXdX",
"dXdXdXdXdXdXdXdXdXdXdXdXdXdXdXdXdXdXdXqXqXeXuXrXrXrXrXrXrXrXyXyXeXwXwXqXqX5X0X].T./.=XdXdXdXdXdXdXdXdXdXdXdXdXdXdXdXdXdXdXdXdXdX",
"dXdXdXdXdXdXdXdXdXdXdXdXdXdXdXdXdXdXdXrXqXyXeXeXrXyXyXyXyXyXyXyXyXyXyXyXeXqX0X@X_._.=X>XdXdXdXdXdXdXdXdXdXdXdXdXdXdXdXdXdXdXdXdX",
"dXdXdXdXdXdXdXdXdXdXdXdXdXdXdXdXdXdXdXqXqXeXiXeXeXyXiXyXsXyXiXiXsXsXyXyXyXeX0X5X,X1X=X=XdXdXdXdXdXdXdXdXdXdXdXdXdXdXdXdXdXdXdXdX",
"dXdXdXdXdXdXdXdXdXdXdXdXdXdXdXdXdXdXdXqXrXeXuXeXyXyXyXyXyXiXiXsXsXsXyXyXeXeXqX8X<X=X%X*XdXdXdXdXdXdXdXdXdXdXdXdXdXdXdXdXdXdXdXdX",
"dXdXdXdXdXdXdXdXdXdXdXdXdXdXdXdXdXdXdXqX0XeXeXyXyXyXyXyXyXsXiXpXsXyXyXuXyXeXrX5X<X=X%X$X=XdXdXdXdXdXdXdXdXdXdXdXdXdXdXdXdXdXdXdX",
"dXdXdXdXdXdXdXdXdXdXdXdXdXdXdXdXdXdXdXqX0XeXyXyXyXyXeXyXyXyXyXsXpXyXyXtXeXrXqX5X<X,X<X&X&XdXdXdXdXdXdXdXdXdXdXdXdXdXdXdXdXdXdXdX",
"dXdXdXdXdXdXdXdXdXdXdXdXdXdXdXdXdXdX0X0X0XeXyXeXeXyXyXyXyXyXyXiXsXsXiXyXeXeX9X5X<X5X&X$X&XdXdXdXdXdXdXdXdXdXdXdXdXdXdXdXdXdXdXdX",
"dXdXdXdXdXdXdXdXdXdXdXdXdXdXdXdXdXdXrXrX0XrXyXyXyXyXyXeXyXyXyXyXpXiXiXiXiXrXqX8X0X<Xh.D.>XdXdXdXdXdXdXdXdXdXdXdXdXdXdXdXdXdXdXdX"
};
