/* XPM */
static char *_288e547166c499daabc7eeb95da7228ennW4PXGg2fK4a9D[] = {
/* columns rows colors chars-per-pixel */
"66 64 88 1 ",
"  c #5F723D",
". c #60733D",
"X c #6A7B3E",
"o c #72823F",
"O c #74933F",
"+ c #6D8740",
"@ c #6D8840",
"# c #768540",
"$ c #718D41",
"% c #759244",
"& c #7D9C40",
"* c #869E43",
"= c #8AA443",
"- c #96BB58",
"; c #99BE59",
": c #9CC457",
"> c #9EC957",
", c #9CC259",
"< c #9FC858",
"1 c #A1CD57",
"2 c #A2C55A",
"3 c #A4CB59",
"4 c #A8CE59",
"5 c #A8CC5A",
"6 c #ABCD5A",
"7 c #ABCD5B",
"8 c #ACCC5B",
"9 c #ACCF5A",
"0 c #AECF5B",
"q c #ADCF5C",
"w c #A2D056",
"e c #A3D156",
"r c #A4D356",
"t c #A5D556",
"y c #A6D756",
"u c #A7D756",
"i c #A8D557",
"p c #A9D657",
"a c #A7D856",
"s c #A8D956",
"d c #A9D857",
"f c #A9DA56",
"g c #A9DB56",
"h c #AADB56",
"j c #ACDA57",
"k c #A6D158",
"l c #A9D059",
"z c #A8D258",
"x c #ACD359",
"c c #ACD15A",
"v c #AED15B",
"b c #AFD15B",
"n c #ADD25A",
"m c #ABD558",
"M c #ADD658",
"N c #AED759",
"B c #AED45A",
"V c #AFD45A",
"C c #AED958",
"Z c #AFDC58",
"A c #B0D25B",
"S c #B2D55B",
"D c #B4D65B",
"F c #B4D45C",
"G c #B4D55C",
"H c #B1DA59",
"J c #B3DB59",
"K c #B3DB5A",
"L c #B0DC58",
"P c #B3DC59",
"I c #B5DE59",
"U c #B5DD5A",
"Y c #B6D85C",
"T c #B7D85C",
"R c #B8DB5B",
"E c #BADD5B",
"W c #B8DE5B",
"Q c #BADE5B",
"! c #B8DB5C",
"~ c #B9DC5C",
"^ c #BADD5C",
"/ c #BEDF5C",
"( c #B3E158",
") c #B9E05A",
"_ c #BBE15B",
"` c #BAE25A",
"' c #A2CA61",
"] c #C0E25C",
/* pixels */
".-----2;---,----6,:e-------,'----,---,3-1:-------,,----,---23-a,;+",
".-;,;;'-;;------AL>h26---,-,,-;;-----,HN1u52--,,-,:-,------2!1u1q$",
" --;-;3,2~2-;1N--aeae2---;-,3-nL,-,k9-,itak2-----2,;TN--:N,-2uuet$",
".,-<-;DN;q)>ui3--:a<e;,--:-2^1,SK:hk2--1a>1---::-7~2:Eu>h3,--ut>3@",
"#U:u:-;:i<3ru-:2,-,,;-nN:a,-,:u,1ue-:2;;:--;Uk>k--,<u,ea:,32--,,-@",
".nhe:<-->i-r<,hz,,-2q;,Nae:<--ue-u:>i3;;-m7-2Zu>::-,a,:a,6i2,-,m'+",
".-1r-r,--e,r,ru,:-3]';-;t<,r--,<,u,h32,-SE,--,m,<<-->>:>:a:2;;US;+",
".---->-----:-:-3)2a2-------:-----:-:-AH>i,------,:----,:-:,Tm1u;;+",
".;;---;----2:---2>e----;;---,----2,---6>>----;---;,---;2---:5>:-;+",
".;;-----:n;9E:::---,;,;;;-----3q-DL-:,---,-,;,;---;-62,~e,3-----,%",
".--2F;-u)A--31H6-,---;;--6n-;C_2-,rrU2-;---,---F2-:(E,-,ttH-,--,;$",
".-;,n1-hn----rr--,,-----;2k:,Z3----i2--2;-----;qr,:L,;;-:a:--,---@",
".-6F2e,e:iS2-3,-,,-62---nA21,e,mS:;6--;;-n;--,A73:3>2CA-:1--,-:v-@",
".-;A/C-riH,;,;--2C:122--2F)1,sgN;;,---zz<32,--6TU:>aL1;,;---F<<2z@",
" ;--:i>3u---;-:n>e>>32----3m:11---;-5r3r>>k,---;5u,r:--;;;n111e>h@",
" ,-,--------;--,1<-,>-;;;,-;;--------:1,-:<-;;;;-,--------,>>,-<>o",
".--,--,<1---::-;;-,-->:--:;-,t:---<,-;--:--3,--,--:u;---1-----:-:%",
".;6<C<ue--3N3i-,;-ee,z,215z<t<--m1ee-2-;t::v-6,m>tu:;;C<h:,,-:s,2*",
".;F6heu,82;K>u>1A;,h31-2F6h1e;q,2Z2t,m4;1t13-4H6uu>:q-zm1m:C,-t<z%",
".-;me<>>D--ni1hu:;;2u1--:u1:emv-;K1tg1;;,<t:--2u>1>S2-,L:ga2,,,tg$",
" '-,:-,<:---32:----->1-,-,,-:>,--;1,;-----t:,;,:--:<---,5:;----,u@",
" ------------------,---,--;------;------,---;;---------;------,-,@",
" ---;;',-------;N311;;--;;-,2;-------,N:e2,------22---;;---2m,e,,@",
" --'----:3----:-3L1j3z--;,-;;-2:---,,;vCegz3--,,--,-2:---,;;LtseS%",
" --,-,S:2~z;:iH--6a1u:---,-:N,5E2,>hk--gu1e,-----9z-AU:-1L2--at53@",
"X2,<--zN:3E1h1;--;a><-2,,>-,Dr:6Z<a>,--,a:<;2-:>-2H12nC1m:---5t<,@",
"o)>a<--;u1,ri-1z:,--,-nU>a,--,u,<s<:k9,;-;;;TN1u--->a-1h,:t6,---;$",
" >ge,e--:h-r:,h:;--SF-;6h>:1--1u,r,<u,--,E6-,ua:,3--h1:e-a1:--5U'+",
" -,<-u;--:;6,e166-rE,--->>,e---:-e;i:72,LF;---1,>>--:::5,u2C,:U6;+",
".----,;;-------:Uei,------;;;----,-;-6U1k--------,-----;-;-She1-;+",
".-,----;---36---,::----,;---;-;;-n:---::,--;-,;---,---:N,---::,-;+",
".,;;,---6H:2U113---,;,;;-,;--,NA-6U:t:---,;,;;-:---:F3-Sm,k;---;;%",
".--2E,-u_2--:eL2-,;------9H--(E,--3uC,-,---;---T3-:)A---1hN-;,--;+",
".--22e-u2;2--e5--;-,;---:231,i,:2-,i,---;,----223>>i;:2-:k--;;;,;@",
".-5Ene-u<ZC2-:;-22-z2---9~z>,u1Ln,-:--2,;N,--;F!r:>1zKn;,:--6-,A;@",
".--2SH,tg6-,,--,:H>e25---9Hu,aZ2-,,-::5m<<6,--,qE>1gj,-:--2,Nr1:v$",
".,---e>-1-----:N11:2e,-,--,3,::-----5611:>e-;;-;:e->,-----9r13:11@",
".,-2---,,-------:,--,--;-,-;-,----;---:,--:,;-,,---,----;--;:--,:@",
".---:-:r1-,,>3-,--1:-62--:,,,a:-:;1:-,-->,;n;--:-,3u--:-r;-;-:>-,=",
".2F1U<h3--5j<h-::-1r,z,2N9C1h:;-Cmek;::-i<:5;qkHkue,,-L1u3-:-:h,e&",
".-93k1e,n2-H6teiF;,u1e--n2me>:S;,H<a1h5;2ue:-,n2te:69-3N:u1H2-euk@",
".;-ie,<mN--2e>i>-;-,ue--,m>:>C2--711u:-;-<h>,-<u::5j2-;m>re,-;->g$",
".,;,;--:----::------::;,-;--,,----<,------::,,-----,---;>-------1$",
".----------,;---;-,3---;---;,----,---;;-:,--------;---;;---,,->,-@",
" --,-,',--------Tm>a,,--;;-;'--------,E1e12,---,-,'--------6U:u:2$",
" --,--;-2S,--,1-,Cehk6--;;-;;-6k---,2-3hehi2--,,-,;-A3---3--6uuuN%",
" --,-,!1;FH,1hS-->h>e,---:-2E22Ez,eg6--ea>e------9L,3E3:aH:-,ae12@",
"#k,k,-2ze:nua:,---<::;n3:k--3te2Ceu,,--,>::;A:51-;9133ute-,--,>:,@",
"X~ie<,--1e-et,tN,;-,2;2~em:,--a>,a3:gq;;-,2-vLrk,--:u::h,>h9;--2,@",
" ;ae-t,-,a:e:<u,;-,^A;-:g:,u--:e,u-k1;;;6]3--1i,33--u1:1:a3---F_'+",
" --:-1-----<,>:6U:mq;---,,,<-----<;1,Sm:g3----,;:>----:2,>:K1>H2-@",
".-----;,---,----nze;---;----,;---,---,Ce6------------------3j1:-;@",
".,,;---;;2-zC--,-;;;-;;;,-----,2-Sk--,-----,-,;-----:,2F2----,--;$",
" --,6--:K!;;S1mt-;-;;,;--:2--1Un-2L<!,---,-,;--6,-,tE2-6h<T---;,;%",
".--,!<-sK;---eN:-,;------6H,,(v---:sk;-,-------Fe->)5---<g6-;2---@",
".-26,e,e,362-1:--;-2,---32:e,e,<5,-t,----6;--;023>>1:51-:e----;3-@",
" -2EEr-h1U6,-,--2k;u2,--6^U2-szH3--,--6:,r:;--n^i,>eCC2-,,--n,:k:$",
".--;6j>>h2--:-23>h1133---;mg:tm,-,,-253ge192---2La:ae--,--6<kue<n@",
".;-;-,:-,-----;3e>,:1-;,---<,-------:1e:,:1-;;;;-:-,------21e,;3>@",
".--:---::---;,------;:;-;2---<,---,---,----:--;,--,<;---:-------,O",
".-;23,1i:-<2>e-,;-1>-k2;,22<1g,-1:e<-,-,e,-i-,,5:>1r-,5,u,;,-:u-2=",
".2T6H1h:2,2H>a,:3;2a:6;3H6het-2;vm1s;32-ee13-nNnih6-2-L6e1,3:-u>e%",
".-21r1r2F,-Nkeha3,;eu1--15r133v,;!<tmg2,,ta:--61rr:z6-2U<huN,;>em$",
".,;r1-:ir--,k:e,---;ue-,-m:-1g2--:k:1;---,a5;-:m;-rh,--1>1>;--->h$"
};
