/* XPM */
static char *_9764e899f714ca5a2fde5f32423e7e3dK1KUUZ3ob3WhYXg[] = {
/* columns rows colors chars-per-pixel */
"64 64 238 2 ",
"   c None",
".  c #080807",
"X  c #1B1511",
"o  c #251A14",
"O  c #341A11",
"+  c #373B08",
"@  c #392619",
"#  c #292618",
"$  c #09132F",
"%  c #0B1233",
"&  c #0B143B",
"*  c #0E1A3C",
"=  c #131636",
"-  c #391534",
";  c #2B2824",
":  c #352D26",
">  c #393428",
",  c #383936",
"<  c #48120B",
"1  c #493B19",
"2  c #452717",
"3  c #722C11",
"4  c #6A142A",
"5  c #791937",
"6  c #751528",
"7  c #442E26",
"8  c #483824",
"9  c #5A3929",
"0  c #463A38",
"q  c #57303A",
"w  c #6C322B",
"e  c #4E1B3A",
"r  c #3E430D",
"t  c #3E4034",
"y  c #565A0A",
"u  c #524919",
"i  c #585115",
"p  c #46480E",
"a  c #675019",
"s  c #656518",
"d  c #74791E",
"f  c #484529",
"g  c #5B452A",
"h  c #494537",
"j  c #584836",
"k  c #5A5730",
"l  c #694935",
"z  c #764734",
"x  c #695A3A",
"c  c #6C4F2C",
"v  c #766832",
"b  c #0B1643",
"n  c #0C1945",
"m  c #0D1A4E",
"M  c #0E174C",
"N  c #141B48",
"B  c #0D1B54",
"V  c #0E1D5B",
"C  c #111E5D",
"Z  c #131C54",
"A  c #361D54",
"S  c #2F1C4D",
"D  c #14215D",
"F  c #172257",
"G  c #182449",
"H  c #262648",
"J  c #2C2757",
"K  c #141E65",
"L  c #142164",
"P  c #15236C",
"I  c #1B2769",
"U  c #162573",
"Y  c #192574",
"T  c #1C2B75",
"R  c #1B2A7C",
"E  c #182779",
"W  c #1E317D",
"Q  c #292669",
"!  c #382768",
"~  c #252A78",
"^  c #392A78",
"/  c #303474",
"(  c #201F67",
")  c #581B49",
"_  c #4E1C4A",
"`  c #671A45",
"'  c #57214D",
"]  c #49255B",
"[  c #5A2355",
"{  c #4A2445",
"}  c #76244C",
"|  c #6F2B51",
" . c #572866",
".. c #483578",
"X. c #4E3070",
"o. c #652A6A",
"O. c #70336E",
"+. c #3D4044",
"@. c #344078",
"#. c #57544A",
"$. c #6A5847",
"%. c #755848",
"&. c #6D4E51",
"*. c #766957",
"=. c #6F6650",
"-. c #544F6F",
";. c #6E5566",
":. c #7A6662",
">. c #79776B",
",. c #85182C",
"<. c #991526",
"1. c #861937",
"2. c #961B37",
"3. c #AA1829",
"4. c #B4192B",
"5. c #A61C36",
"6. c #BA1B32",
"7. c #9C2536",
"8. c #8F2030",
"9. c #A8213B",
"0. c #B42237",
"q. c #CB1C35",
"w. c #C41C34",
"e. c #D61E3D",
"r. c #C21A2F",
"t. c #D3203C",
"y. c #934A16",
"u. c #A95116",
"i. c #89543B",
"p. c #945B3A",
"a. c #88502E",
"s. c #9A633C",
"d. c #8A6931",
"f. c #A46E33",
"g. c #CC7E34",
"h. c #911E45",
"j. c #982347",
"k. c #852754",
"l. c #8B324D",
"z. c #AE2A4E",
"x. c #982B65",
"c. c #892D6A",
"v. c #C42247",
"b. c #985D44",
"n. c #8D4E4C",
"m. c #B54852",
"M. c #996548",
"N. c #8F6E51",
"B. c #A3654A",
"V. c #A96A55",
"C. c #B8795A",
"Z. c #AD7556",
"A. c #956A6F",
"S. c #A67A66",
"D. c #AD7174",
"F. c #92466E",
"G. c #8C8977",
"H. c #958E79",
"J. c #928A72",
"K. c #B88366",
"L. c #A88673",
"P. c #BA8A75",
"I. c #B79479",
"U. c #A88973",
"Y. c #A5815A",
"T. c #C48654",
"R. c #C8896A",
"E. c #C69679",
"W. c #D29B7E",
"Q. c #C38876",
"!. c #1C2C83",
"~. c #1A2D88",
"^. c #1A2E92",
"/. c #1E3292",
"(. c #1E3399",
"). c #1D318D",
"_. c #262D86",
"`. c #362E84",
"'. c #26348B",
"]. c #223494",
"[. c #23359A",
"{. c #263B9B",
"}. c #343898",
"|. c #323B83",
" X c #2A3EA4",
".X c #283AA5",
"XX c #333AA9",
"oX c #4B3589",
"OX c #553080",
"+X c #2D4298",
"@X c #384794",
"#X c #2D43A6",
"$X c #324AB8",
"%X c #3E54BA",
"&X c #364DAA",
"*X c #51568D",
"=X c #634886",
"-X c #4657AC",
";X c #5568A6",
":X c #7177A4",
">X c #686D9D",
",X c #3A55C1",
"<X c #96778C",
"1X c #B07788",
"2X c #7B819C",
"3X c #918F8F",
"4X c #A79C84",
"5X c #B69091",
"6X c #A9A491",
"7X c #8E91AA",
"8X c #A793AC",
"9X c #9EA0B2",
"0X c #AFADB0",
"qX c #C79A87",
"wX c #C4979A",
"eX c #D69783",
"rX c #CCA38A",
"tX c #D8A788",
"yX c #C9A495",
"uX c #D7A995",
"iX c #D8B59C",
"pX c #E5B697",
"aX c #E1AA90",
"sX c #C29FA2",
"dX c #C6A8A9",
"fX c #C9B8B8",
"gX c #D4B3AA",
"hX c #E3BAA6",
"jX c #D5C7BB",
"kX c #D7C3AA",
"lX c #EECCB5",
"zX c #ADB0C0",
"xX c #DDBDC2",
"cX c #C8C3C5",
"vX c #D5CDC9",
"bX c #E7D3C7",
"nX c #EDD8CB",
"mX c #F0E4D9",
/* pixels */
"                                                                                                                                ",
"                                                            +.#.+.-.                                                            ",
"                                                        +., ; # , h #.>.                                                        ",
"                                                    9X#.X , ; > t h *.=.                                                        ",
"                                                    3XX , > f f t >.H.4X=.                                                      ",
"                                                  cXH.# > $.6XH.J.H.6XjX0Xt                                                     ",
"                                                  0XJ.# f H.6Xx x *.=.kXjX#.                                                    ",
"                                                  >.v # f Y.*.v %.k f v Y.f                                                     ",
"                                                  v s y y p u u u p 1 a k k                                                     ",
"                                                  d s p p r r r r r p i s s                                                     ",
"                                                  d s p u k + + r u f x i y                                                     ",
"                                                    s a v N.a u 8 1 a a i y                                                     ",
"                                                    Y.s.d.f.Y.v a d.g.f.s                                                       ",
"                                                  rXQ.N.x i i v v d.f.f.v                                                       ",
"                                                iXQ.M.A.I.H.$.g 1 g S.rXdX                                                      ",
"                                              fXqXc #.G.H.0X6XG.&.G.H.yXuXiX                                                    ",
"                                              kXp.9 j #.h #.G.3XJ.>.*.*.=.Y.nXvX                                                ",
"                                            nXiXz z h t h h t k $.>.$.g %.yXI.kXnX                                              ",
"                                          fXbXqXa.9 : ; ; ; ; t > ; : 0 &.9 c tXmX                                              ",
"                                          :X6XR.E.E.%.@ X . . . . X q N.%.%.s.rXmX                                              ",
"                                        @X_./ A.rXrXS.z 7             U.rXhXtXtXnXvX                                            ",
"                                      *X}.R U / :.                        I.E.P.<X;X&X                                          ",
"                                      @X[. XW L                             N.;.~ (.XX                                          ",
"                                    @X~.!.W T                                 F L Y {.$X                                        ",
"                                    '.).~.P T                                 J G L ~.#X+X                                      ",
"                                    ].(.[.'.                                    I R R (.#X                                      ",
"                                  @X).].].W                                       I T U [.%X                                    ",
"                                  {.~.R T T                   =.$.$.=.            / !.T ~. X%X                                  ",
"                                -XR E ].].                  j # X o o : 0           I U R ].$X%X                                ",
"                                +XU T ~.!.                >.: @ 9 x %.g @ #           ~ P E #X,X                                ",
"                              &X!.U E ~.R                 *.:.I.tXpXpXpXU.:           |.Y U /.$X,X                              ",
"                              +XT U E !.~                 6XbXhXpXpXlXlXlXN.            I E ~..X,X-X                            ",
"                            ;X'.U K P I                   jXgXS.R.pXtXgXlXL.            F P U ~.$X%X                            ",
"                            &XE K K Z B                   jXL.z M.W.i.n.P.rX            G F L U ).$X%X                          ",
"                            '.U U K K D                 6XvXwXP.qXtXP.L.rXaXS.            F V L R {.#X                          ",
"                            U P K U R I                 dXbXhXaXuXqXuXlXnXkXqX            J D L P P P                           ",
"                            Z D K I Y Y                 yXiXeXR.p.z Z.aXhXpXW.rX          C K K D B                             ",
"                            m m K I K Y T               iXrXC.M.z 8.i.C.R.R.eXrX        / C Z M b n                             ",
"                            * & b B L P E W               I.Z.s.i.i.n.p.Z.C.qX          / N % $ % b                             ",
"                              $ & M C L U R               4XM.p.B.B.C.p.f.Z.          %.Z b % $ % b                             ",
"                              = % & M Z P E Q               S.l b.B.s.z i.P.        b.p.G & % $ % *                             ",
"                              = $ % b Z K L P Y             L.g 7 7 2 2 V.qX        n.u.l & % % % N                             ",
"                                % & Z C C C L P Y ~ /       U.j O X o z R.5X    ! / M.u.f.0 N % $                               ",
"                                = & b B V C D P Y ~ ! Q { A.K.M.z 7 9 p.C.A.O.1.' / a.u.y.y.w 7 0                               ",
"                                  % $ n B B V L R [ 1._ 4 n.S.C.b.p.B.V.| ..] <.3.' q u.y.3 < <                                 ",
"                                    & & m B V I ` 2.` ~ e ,.| D.T.T.T.;.-.;.^ } 3.6 H 9 3 O O 2                                 ",
"                                    * b m V C A <.1.Q ~.( 4 ! -.C.T.V.A.E.T.=.` <.6 S N @ X o J                                 ",
"                                      * n B D e <.} >.*XW A ) ^ X.n.| K.T.N.#.] ,.6 S B b & M                                   ",
"                                      * n V S 4 5 ! -.*X*X! 1.n.5X5X-.;.;.:.X.X.A I A S m m D                                   ",
"                                        N H _ J ] ] Z U _./ <XfXdXwXO.^ ..] ,.j.`._.} ) Z D                                     ",
"                                          S ) P ! z.| - - e -.*X=X=XX.` 6 6 z.z.}.[.O.[ Q I                                     ",
"                                          { ) P ] qXdXA.l.A.>X@X}.;X9XD.5XyXdX1X}.[.o. .| Q                                     ",
"                                          ' _ T ..fXdXdXdXcX0X7X;X0XzXcXxXgXD.8X}.{.oXk.9.                                      ",
"                                            [ W =XwXdXdX5XfXzX7X7X9X9XfXsXqXm.x. X.X`.5.9.                                      ",
"                                            ] !.X.0.m.D.wX7X3X7X9X7X:X1Xm.z.3.x.oXoXo.4.5.                                      ",
"                                            ' .. .j.2.0.1X8X2X:X;X*X^ | j.} ..OXz.v.6.4.                                        ",
"                                            8.9.k.( `.X.o.o.[ ) ) ` h. ._.^.[.}.z.e.e.4.                                        ",
"                                            7.0.} P U ^.}.h.6.3.3.r.6. .^.(.[.}.z.t.q.5.                                        ",
"                                            9.0.o._.U U `.v.q.w.r.r.3. .(.[.(.XXx.e.w.5.                                        ",
"                                            7.0.o.^.!.!.( 2.6.6.3.3.3.^ [.].]..Xx.e.w.                                          ",
"                                            l.6.o.(.).R ( 5 3.3.4.4.5.`.^.^..XXXc.e.w.                                          ",
"                                            F.z.o.'.~ ~ ( h.3.3.5.h.k.o.o.o.O.c.c.O.O.                                          ",
"                                            -.O.k.2.h.j.h.! ! ^ ^ `.`.h.r.q.q.q.c. X}.                                          ",
"                                              }.k.4.3.4.2._.^.^.^.^.~ 5.r.q.q.q.x.XX#X                                          "
};
